<?xml version="1.0" encoding="UTF-8"?>
<svg id="Layer_1" xmlns="http://www.w3.org/2000/svg" version="1.1" viewBox="0 0 1182.74 202.93">
  <!-- Generator: Adobe Illustrator 30.0.0, SVG Export Plug-In . SVG Version: 2.1.1 Build 123)  -->
  <defs>
    <style>
      .st0 {
        fill: #c52031;
      }
    </style>
  </defs>
  <path d="M88.14,0c36.35,0,66.23,29.88,66.23,66.23,0,26.14-15.94,49.3-38.35,59.76l37.85,76.94h-49.3l-56.52-114.79h40.09c11.95,0,21.91-10.21,21.91-21.91s-9.96-22.16-21.91-22.16h-44.07v158.86H0V0h88.14Z"/>
  <path d="M317.22,123.5c0,3.49-.25,7.22-.75,10.71h-99.35v-26.64h52.29c-5.73-11.45-17.93-19.42-31.62-19.42-19.17,0-35.36,15.44-35.36,35.36s16.18,35.11,35.36,35.11c5.98,0,11.45-1.49,16.43-3.98h56.52c-11.95,28.38-40.09,48.3-72.96,48.3-43.82,0-79.43-35.61-79.43-79.43s35.61-79.43,79.43-79.43,79.43,35.61,79.43,79.43Z"/>
  <path d="M330.42,149.15h44.82c-.5.75-.75,1.74-.75,2.99,0,3.49,2.99,6.47,6.47,6.47,3.73,0,6.72-2.99,6.72-6.47,0-2.99-1.99-5.48-4.73-6.47l-19.92-7.97c-17.93-7.22-30.63-24.65-30.63-45.07,0-27.39,22.16-48.55,49.3-48.55,25.65,0,46.81,20.92,47.81,46.56h-44.57c-.75-1.49-2.24-2.49-3.98-2.49-2.24,0-4.23,1.99-4.23,4.48,0,1.49.75,2.99,2.24,3.73l21.66,8.96c18.92,7.97,31.37,26.89,31.37,47.06,0,28.14-22.91,50.55-51.04,50.55-30.13,0-50.55-24.65-50.55-53.78Z"/>
  <path d="M463.14,68.72h-15.94v-24.65h15.94V0h44.07v44.07h15.94v24.65h-15.94v76.94c0,7.22,5.98,13.2,13.45,13.2h3.98v44.07h-3.98c-31.87,0-57.52-25.65-57.52-57.27v-76.94Z"/>
  <path d="M622.5,44.07v44.07c-19.42,0-35.11,15.69-35.11,35.36v79.43h-44.07v-79.43c0-43.82,35.36-79.43,79.18-79.43Z"/>
  <path d="M789.82,123.5c0,43.82-35.61,79.43-79.43,79.43s-79.43-35.61-79.43-79.43,35.61-79.43,79.43-79.43,79.43,35.61,79.43,79.43ZM675.03,123.5c0,19.42,15.94,35.11,35.36,35.11s35.36-15.69,35.36-35.11-15.94-35.36-35.36-35.36-35.36,15.69-35.36,35.36Z"/>
  <path d="M881.45,202.93l-18.42-36.35-18.18,36.35h-49.3l42.83-85.4-37.1-73.45h49.55l12.2,24.65,12.45-24.65h49.55l-37.1,73.45,42.83,85.4h-49.3Z"/>
  <path class="st0" d="M1125.22,202.93h-47.31l-13.2-33.86h-48.55l16.93-44.32h14.69l-13.94-36.1-44.07,114.29h-47.31L1020.64,0h26.39l78.18,202.93Z"/>
  <path class="st0" d="M1182.74,44.07v158.86h-44.32V44.07h44.32ZM1180.5,19.92c0,10.96-8.96,19.92-19.92,19.92s-19.92-8.96-19.92-19.92,8.96-19.92,19.92-19.92,19.92,8.96,19.92,19.92Z"/>
</svg>