<?xml version="1.0" encoding="UTF-8"?>
<svg id="Layer_1" xmlns="http://www.w3.org/2000/svg" version="1.1" viewBox="0 0 1149.44 739.74">
  <!-- Generator: Adobe Illustrator 30.0.0, SVG Export Plug-In . SVG Version: 2.1.1 Build 123)  -->
  <defs>
    <style>
      .st0 {
        fill: #cc665d;
      }

      .st1 {
        fill: #6359cc;
      }

      .st2 {
        fill: #fdc864;
      }

      .st3 {
        fill: #341e82;
      }

      .st4 {
        fill: #fff;
      }

      .st5 {
        fill: #ef3d1b;
      }

      .st6 {
        fill: #272737;
      }

      .st7 {
        fill: #fd7768;
      }

      .st8 {
        fill: #6e454a;
      }

      .st9 {
        fill: #5f5f77;
      }

      .st10 {
        fill: #8a8efd;
      }

      .st11 {
        fill: #ffa48d;
      }

      .st12 {
        fill: #a67e84;
      }

      .st13 {
        fill: #88001c;
      }

      .st14 {
        fill: #047c6c;
      }

      .st15 {
        fill: #c04749;
      }

      .st16 {
        fill: #053d3a;
      }

      .st17 {
        opacity: .5;
      }
    </style>
  </defs>
  <g>
    <g>
      <path class="st8" d="M639.79,274.73s-.21,2.88-1.11,7.35c-.13.67-.28,1.37-.45,2.1-1.77,7.85-5.49,19.29-13.08,29.14,0,0,0,0,0,0-.42.53-.83,1.05-1.27,1.58-2.75,3.32-5.98,6.41-9.76,9.08-.38.27-.76.53-1.15.79-6.04,4-13.44,6.91-22.48,7.92h0c-.57.06-1.14.12-1.72.16h0c-1.78.16-3.63.23-5.54.23-7.69,0-14.44-1.26-20.34-3.41-.42-.15-.84-.31-1.26-.47-8.19-3.22-14.73-8.16-19.94-13.78-.4-.43-.79-.86-1.16-1.29-4.91-5.6-8.56-11.77-11.24-17.54-.18-.38-.35-.76-.52-1.14-5.07-11.28-6.45-20.72-6.45-20.72h117.49Z"/>
      <g>
        <path class="st12" d="M546.2,274.73c-4.25,8.41-9.56,16.61-16.92,21.86-.18-.38-.35-.76-.52-1.14,6.93-5.01,11.98-12.76,16.04-20.72h1.4Z"/>
        <path class="st12" d="M563.58,274.73c-7.12,5.58-12.87,12.82-16.73,21.03-2.4,5.1-5.28,12.83-5.17,19.66-.4-.43-.79-.86-1.16-1.29.21-5.83,2.25-12.02,4.18-16.61,3.7-8.85,9.53-16.68,16.88-22.78h2.01Z"/>
        <path class="st12" d="M614.11,323.98c-.38.27-.76.53-1.15.79-3.52-17.87,1.76-36.65,14.23-50.04h1.76c-12.66,13.04-18.14,31.53-14.83,49.25Z"/>
        <path class="st12" d="M597.6,322.87c-2.27,3.35-4.64,6.62-7.12,9.82h0c-.57.06-1.14.12-1.72.16,3.51-4.49,6.83-9.13,9.93-13.92,1.78-2.76,4.94-6.78,3.78-10.32-1.47-4.47-7.62-2.59-10.76-1.5-11.79,4.09-20.77,13.23-28.83,22.56-.42-.15-.84-.31-1.26-.47,3.64-4.21,7.4-8.31,11.55-12.02,4.67-4.18,9.85-7.87,15.65-10.31,3.89-1.63,10.99-4.45,14.14-.03,3.52,4.93-2.76,12.19-5.35,16.03Z"/>
        <path class="st12" d="M638.68,282.08c-.13.67-.28,1.37-.45,2.1-8.02,7.55-12.74,18.21-13.08,29.14,0,0,0,0,0,0-.42.53-.83,1.05-1.27,1.58-.08-12.41,5.3-24.67,14.8-32.83Z"/>
        <path class="st12" d="M614.32,274.73c-2.41,2.25-4.87,4.45-7.39,6.57-6.11,5.15-12.52,9.93-19.2,14.3-3.24,2.12-6.55,4.45-10.11,5.99-2.77,1.2-6.07,1.76-8.65-.16-5.46-4.07-2.52-12.3-.09-17.23,1.73-3.51,4.01-6.7,6.72-9.47h1.81c-3.49,3.33-6.31,7.34-8.21,11.82-1.34,3.16-2.7,6.99-1.73,10.42,1.4,4.91,6.2,5.09,10.17,3.24,6.04-2.82,11.72-7.07,17.1-10.97,6.19-4.48,12.1-9.33,17.71-14.51h1.87Z"/>
      </g>
      <ellipse class="st6" cx="581.04" cy="274.73" rx="58.74" ry="3.36"/>
      <g>
        <g>
          <path class="st14" d="M610.98,151.79c-3.52,4.22-6.06,19.83-12.8,22.35-4.63,1.73-7.09-4.96,1.89-13.42,5.78-5.45,8.36-11.96,9.46-15.9-1.58-6.89-3.65-13.97-6.33-20.4-5.18,4.79-13.49,11.58-15.86,8.33-2.58-3.54,5.15-14.68,9.47-20.4-2.01-2.92-4.24-5.47-6.72-7.49-4.05-3.31-8.75-5.21-14.21-5.06-3.93.1-7.54,1.53-10.79,3.94,4.62,9.15,11.44,24.6,6.66,28.16-4.43,3.3-10.85-9.5-14.87-19.05-5.66,8.73-9.46,20.7-11.1,32.25,1.11,2.07,3.02,4.47,6.33,6.85,8.76,6.29,19.16,19.01,13.96,21.84-5.2,2.83-10.63-4.64-14.5-11.31-1.99-3.42-4.22-6.18-6.64-8.01-.08,2.02-.09,3.99-.01,5.9,1.38,36.32,36.84,36.31,36.84,36.31,0,0,35.5-8.18,29.24-44.9ZM566.35,152.52c-3.51-.03-9.1-6.6-11.72-10.24-2.62-3.66-.52-6.15,1.99-5.44.03.01.07.02.11.03,3.53,1.06,14.17,15.69,9.62,15.65ZM597.29,143.81s.07-.02.11-.03c2.51-.7,4.58.98,3.4,4.19-1.55,4.21-3.61,5.87-6.75,4.3-1.98-.99-.28-7.39,3.25-8.46Z"/>
          <path class="st6" d="M577.9,142.71c3.11,15.89,2.11,32.28.92,48.31-1.27,17.24-2.99,34.51-2.31,51.81.38,9.67,1.55,19.31,3.87,28.72.21.85,1.53.49,1.32-.36-8.43-34.17-.62-68.94-.41-103.47.05-8.5-.45-17.02-2.08-25.38-.17-.86-1.49-.5-1.32.36h0Z"/>
        </g>
        <g>
          <path class="st14" d="M561.99,196.85c-.35,5.49,6.8,19.59,2.84,25.59-2.72,4.13-8.65.17-6.39-11.95,1.46-7.81-.3-14.59-1.74-18.42-5.34-4.63-11.19-9.13-17.14-12.75-1.36,6.92-4.06,17.31-7.89,16.08-4.17-1.33-4.5-14.89-4.38-22.06-3.34-1.18-6.65-1.92-9.84-2.09-5.22-.28-10.14.96-14.46,4.29-3.12,2.4-5.19,5.69-6.39,9.55,9.13,4.66,23.75,13.13,21.99,18.81-1.63,5.28-14.37-1.27-23.24-6.61.58,10.39,4.57,22.3,10.05,32.59,2.11,1.02,5.08,1.83,9.15,1.8,10.78-.08,26.69,4.06,24.15,9.41-2.53,5.35-11.32,2.52-18.38-.58-3.63-1.59-7.05-2.5-10.09-2.55,1.12,1.68,2.29,3.28,3.47,4.77,22.53,28.52,51.16,7.6,51.16,7.6,0,0,23.85-27.55-2.86-53.5ZM526.38,223.76c-2.86,2.05-11.24.04-15.5-1.36-4.28-1.41-4.05-4.65-1.6-5.57.03-.01.07-.02.1-.04,3.47-1.22,20.7,4.32,16.99,6.97ZM546.23,198.49s.05-.06.07-.09c1.62-2.05,4.28-1.91,5.21,1.38,1.23,4.31.55,6.87-2.92,7.45-2.18.36-4.59-5.81-2.36-8.74Z"/>
          <path class="st6" d="M529.86,208.98c8.3,7.64,16.52,15.56,23.24,24.66,5.18,7.02,9.17,14.74,12.78,22.66,2.55,5.59,4.98,11.24,7.47,16.86.36.8,1.53.11,1.18-.69-4.11-9.26-7.93-18.7-12.74-27.62-4.28-7.93-9.61-15.14-15.69-21.78-4.83-5.27-10.01-10.22-15.27-15.07-.65-.6-1.62.37-.97.97h0Z"/>
        </g>
        <g>
          <path class="st14" d="M592.83,256.89s28.48,21.12,51.21-7.24c1.19-1.49,2.36-3.07,3.5-4.75-3.03.02-6.47.91-10.11,2.48-7.08,3.04-15.89,5.82-18.38.45-2.5-5.37,13.43-9.4,24.22-9.24,4.07.06,7.04-.73,9.16-1.73,5.55-10.26,9.63-22.14,10.28-32.52-8.91,5.28-21.7,11.74-23.29,6.45-1.72-5.7,12.96-14.06,22.12-18.66-1.18-3.87-3.22-7.17-6.32-9.59-4.3-3.36-9.21-4.64-14.43-4.39-3.19.15-6.5.86-9.85,2.02.07,7.17-.35,20.72-4.53,22.03-3.84,1.2-6.47-9.21-7.78-16.14-5.98,3.58-11.86,8.03-17.23,12.63-1.47,3.82-3.27,10.59-1.87,18.41,2.18,12.14-3.78,16.05-6.47,11.9-3.91-6.03,3.34-20.08,3.02-25.57-26.89,25.77-3.24,53.48-3.24,53.48ZM648.54,223.72s.07.03.1.04c2.44.93,2.65,4.18-1.64,5.56-4.27,1.37-12.66,3.32-15.51,1.25-3.68-2.68,13.58-8.1,17.04-6.85ZM609.4,213.88c-3.46-.6-4.13-3.17-2.87-7.47.96-3.29,3.62-3.4,5.22-1.34.02.03.05.06.07.09,2.2,2.95-.25,9.11-2.43,8.73Z"/>
          <path class="st6" d="M627.16,214.79c-8.16,7.4-16.46,14.85-23.51,23.35-5.19,6.26-9.32,13.18-12.92,20.45-2.7,5.46-5.19,11.03-7.7,16.58-.36.8.82,1.49,1.18.69,3.95-8.73,7.77-17.61,12.69-25.85,4.42-7.39,9.99-13.89,16.06-19.97,4.9-4.92,10.02-9.61,15.16-14.27.65-.59-.32-1.56-.97-.97h0Z"/>
        </g>
      </g>
    </g>
    <g>
      <path class="st6" d="M449.88,561.76h-88.38c-3.91,0-7.09-3.17-7.09-7.09s3.17-7.09,7.09-7.09h88.38c3.91,0,7.09,3.17,7.09,7.09s-3.17,7.09-7.09,7.09Z"/>
      <path class="st9" d="M492.64,685.76c-2.97,0-5.73-1.88-6.72-4.85l-110.34-331.24c-1.24-3.71.77-7.72,4.48-8.96,3.71-1.24,7.72.77,8.96,4.48l110.34,331.24c1.24,3.71-.77,7.72-4.48,8.96-.74.25-1.5.37-2.24.37Z"/>
      <path class="st9" d="M320.19,685.76c-.74,0-1.5-.12-2.24-.37-3.71-1.24-5.72-5.25-4.48-8.96l110.34-331.24c1.24-3.71,5.25-5.72,8.96-4.48,3.71,1.24,5.72,5.25,4.48,8.96l-110.34,331.24c-.99,2.97-3.75,4.85-6.72,4.85Z"/>
    </g>
    <g>
      <path class="st6" d="M815,561.76h-88.38c-3.91,0-7.09-3.17-7.09-7.09s3.17-7.09,7.09-7.09h88.38c3.91,0,7.09,3.17,7.09,7.09s-3.17,7.09-7.09,7.09Z"/>
      <path class="st9" d="M857.76,685.76c-2.97,0-5.73-1.88-6.72-4.85l-110.34-331.24c-1.24-3.71.77-7.72,4.48-8.96,3.71-1.24,7.72.77,8.96,4.48l110.34,331.24c1.24,3.71-.77,7.72-4.48,8.96-.74.25-1.5.37-2.24.37Z"/>
      <path class="st9" d="M685.32,685.76c-.74,0-1.5-.12-2.24-.37-3.71-1.24-5.72-5.25-4.48-8.96l110.34-331.24c1.24-3.71,5.25-5.72,8.96-4.48,3.71,1.24,5.72,5.25,4.48,8.96l-110.34,331.24c-.99,2.97-3.75,4.85-6.72,4.85Z"/>
    </g>
    <g>
      <path class="st6" d="M850.59,328.2v17.41c0,.89-.08,1.77-.25,2.61-.22,1.15-.58,2.25-1.07,3.28-2.21,4.7-6.99,7.95-12.53,7.95h-489.54c-5.54,0-10.32-3.25-12.53-7.95-.49-1.03-.85-2.13-1.07-3.28-.16-.84-.25-1.72-.25-2.61v-17.41h517.24Z"/>
      <path class="st9" d="M850.34,348.22c-.22,1.15-.58,2.25-1.07,3.28H334.67c-.49-1.03-.85-2.13-1.07-3.28h516.74Z"/>
    </g>
  </g>
  <g>
    <path class="st11" d="M319.22,186.15s55.85,78.3,62.22,96.18c6.37,17.88-16.49,49.02-16.49,49.02l-23.44,5.21s-3.61-34.07.63-46.3l-43.41-59.04,20.47-45.06Z"/>
    <path class="st0" d="M350.11,280.22c-1.58,1.75-3,3.63-4.24,5.64-.57.93.89,1.78,1.46.86,1.16-1.89,2.48-3.65,3.97-5.3.73-.81-.46-2.01-1.2-1.2h0Z"/>
    <path class="st0" d="M342.45,289.09c3.72-3.79,8.52-5.96,13.82-6.26,1.08-.06,1.12,1.61.05,1.67-4.88.28-9.23,2.26-12.65,5.74-.75.77-1.97-.38-1.21-1.15h0Z"/>
    <path class="st11" d="M348.43,308.47s-9.13-3.58-17.22,3.57c-8.09,7.15-13.43,28.39-13.43,28.39l30.51-8.38.14-23.57Z"/>
    <g>
      <g>
        <g>
          <path class="st6" d="M260.89,560.21h18.13c1.21,0,2.19-.98,2.19-2.19v-77.78h-22.5v77.78c0,1.21.98,2.19,2.19,2.19Z"/>
          <path class="st6" d="M203.19,651.53v14.29h10.35v-6.46c0-1.82,1.48-3.3,3.3-3.3h44.33c1.53,0,2.77,1.24,2.77,2.77v6.98h12.04v-6.98c0-1.53,1.24-2.77,2.77-2.77h44c1.82,0,3.3,1.48,3.3,3.3v6.46h10.35v-14.29c0-3.21-2.6-5.82-5.82-5.82h-54.6v-184.13h-12.04v184.13h-54.94c-3.21,0-5.82,2.6-5.82,5.82Z"/>
        </g>
        <g>
          <path class="st6" d="M315.66,675.06c0,8.51,6.9,15.41,15.41,15.41s15.41-6.9,15.41-15.41-6.9-15.41-15.41-15.41-15.41,6.9-15.41,15.41Z"/>
          <path class="st9" d="M331.07,683.89c4.87,0,8.83-3.96,8.83-8.83s-3.96-8.83-8.83-8.83-8.83,3.96-8.83,8.83,3.96,8.83,8.83,8.83Z"/>
        </g>
        <g>
          <path class="st6" d="M254.38,675.06c0,8.51,6.9,15.41,15.41,15.41s15.41-6.9,15.41-15.41-6.9-15.41-15.41-15.41-15.41,6.9-15.41,15.41Z"/>
          <path class="st9" d="M269.79,683.89c4.87,0,8.83-3.96,8.83-8.83s-3.96-8.83-8.83-8.83-8.83,3.96-8.83,8.83,3.96,8.83,8.83,8.83Z"/>
        </g>
        <g>
          <path class="st6" d="M192.87,675.06c0,8.51,6.9,15.41,15.41,15.41s15.41-6.9,15.41-15.41-6.9-15.41-15.41-15.41-15.41,6.9-15.41,15.41Z"/>
          <path class="st9" d="M208.29,683.89c4.87,0,8.83-3.96,8.83-8.83s-3.96-8.83-8.83-8.83-8.83,3.96-8.83,8.83,3.96,8.83,8.83,8.83Z"/>
        </g>
      </g>
      <g>
        <path class="st9" d="M79.5,197.79l65.42,272.51c2.11,8.79,9.97,14.99,19.02,14.99h153.54c12.69,0,22.02-11.9,18.99-24.22l-66.89-272.51c-2.15-8.75-9.99-14.9-18.99-14.9H98.52c-12.65,0-21.97,11.82-19.02,24.12Z"/>
        <path class="st6" d="M96.4,197.79l65.42,272.51c2.11,8.79,9.97,14.99,19.02,14.99h153.54c12.69,0,22.02-11.9,18.99-24.22l-66.89-272.51c-2.15-8.75-9.99-14.9-18.99-14.9H115.42c-12.65,0-21.97,11.82-19.02,24.12Z"/>
        <path class="st9" d="M174.73,467.2L109.32,194.69c-.62-2.57.47-4.46,1.17-5.35.7-.89,2.28-2.39,4.93-2.39h152.06c2.9,0,5.4,1.96,6.09,4.78l66.89,272.51c.63,2.58-.45,4.47-1.16,5.37-.7.9-2.28,2.4-4.94,2.4h-153.54c-2.91,0-5.42-1.98-6.1-4.81ZM115.42,188.71c-1.91,0-3.04,1.08-3.55,1.72-.51.64-1.29,2-.84,3.85l65.42,272.51c.49,2.04,2.29,3.46,4.39,3.46h153.54c1.91,0,3.05-1.08,3.55-1.73.51-.65,1.29-2.01.83-3.87l-66.89-272.51c-.5-2.03-2.3-3.44-4.39-3.44H115.42Z"/>
      </g>
      <path class="st9" d="M426,493.37H168.13c-10.28,0-19.2-7.08-21.53-17.09l-3.45-14.85h275.42l7.43,31.94Z"/>
      <path class="st6" d="M422.46,493.37h-237.76c-10.28,0-19.2-7.08-21.53-17.09l-3.45-14.85h262.74c7.43,0,13.87,5.12,15.55,12.35h0c2.33,10.01-5.27,19.59-15.55,19.59Z"/>
    </g>
    <g>
      <g>
        <g>
          <path class="st11" d="M324.96,382.65c-2.42.66-4.82,1.28-7.2,1.85-1,.25-1.99.48-2.98.71-38.93,9.02-72.72,7.77-94.1,5.16-1.05-.12-2.06-.25-3.04-.39-12.51-1.69-20.1-3.72-21.02-3.98-.03,0-.06-.02-.09-.02,2.07-9.32,3.01-13.51,3.54-22.85.15-2.6.25-5.13.33-7.53h0c.14-4.5.17-8.57.14-11.93v-.18s0,0,0,0c-.02-2.26-.05-4.2-.09-5.72,14.91-2.83,42.4-7.77,67.88-10.91,18.49-2.28,35.92-3.63,46.72-2.54l.61,4.01.91,5.93.77,4.44,1.68,9.72,5.81,33.5.12.74Z"/>
          <path class="st1" d="M199.79,366.96s84.68,10.06,120.7-11.68c0,0,7.82,35.9,7.14,45.42-1.64,22.82-129.48,17.77-132.7-4.55-1.42-9.85,4.87-29.2,4.87-29.2Z"/>
          <path class="st3" d="M199.57,364.54s-3.91,6.39-2.82,13.62c0,0,84.55,11.63,126.19-10.91,0,0,2.19-6.93-3.11-14.16,0,0-32.7,22.25-120.26,11.45Z"/>
          <path class="st0" d="M316.58,334.25c-8.94.64-20.78,1.79-34.07,3.86-25.62,3.98-56.62,11.36-82.44,25.02.15-2.6.25-5.13.33-7.53h0c.14-4.5.17-8.57.14-11.93v-.18s0,0,0,0c-.02-2.26-.05-4.2-.09-5.72,14.91-2.83,42.4-7.77,67.88-10.91,18.49-2.28,35.92-3.63,46.72-2.54l.61,4.01.91,5.93Z"/>
        </g>
        <g>
          <path class="st13" d="M200.4,355.59h0c-14.58-.64-11.7-8.82-11.7-8.82l.1-.03,11.74-3.26h0s0,.19,0,.19l-.14,11.93Z"/>
          <path class="st5" d="M340.34,275.67c-.06.95-.18,1.92-.35,2.9-.06.39-.15.79-.24,1.19-.22.92-.49,1.85-.82,2.8-.2.57-.42,1.15-.66,1.73-2.97,7.28-8.66,14.93-12.64,19.6-.41.49-.8.93-1.17,1.35-.39.43-.75.83-1.08,1.18-.54.57-.99,1.03-1.34,1.36-.19.18-.36.33-.51.47-.44.41-.7.62-.7.62,0,.06,0,.12,0,.18.02.46.04.94.07,1.45.05.85.11,1.76.18,2.74.08,1.09.18,2.26.3,3.51.02.2.04.4.06.61l.02.22c.03.29.05.58.09.88.18,1.8.38,3.74.61,5.8.2,1.83.43,3.76.68,5.75-.01,0-.02,0-.02,0h0c-2.26-.67-4.64-1.22-7.14-1.66,0,0,0,0-.01,0-13.14-2.36-29.31-1.8-45.91.28-2.42.3-4.84.63-7.26.99-1.33.2-2.65.4-3.98.61h0c-8.38,1.35-16.73,3-24.7,4.77-.63.14-1.26.28-1.9.43-11.66,2.64-22.47,5.52-31.37,8.07-4.44,1.27-8.4,2.46-11.76,3.5l.02-.24c.19-2.46.34-4.86.46-7.2.08-1.61.15-3.2.2-4.76.02-.74.05-1.48.06-2.21.08-3.25.1-6.38.05-9.41-.02-1.77-.07-3.5-.14-5.2-.03-.75-.06-1.49-.1-2.22-.11-2.11-.24-4.17-.4-6.17,0-.09-.01-.18-.02-.28-.25-3.06-.65-6.46-1.18-10.12-.09-.62-.18-1.25-.28-1.88-1.43-9.38-3.68-20.33-6.55-31.71-.14-.56-.29-1.12-.43-1.69-.01-.06-.03-.11-.04-.17-.57-2.24-1.17-4.51-1.79-6.77-.18-.65-.36-1.29-.54-1.94-.1-.36-.2-.73-.3-1.09-.08-.28-.16-.56-.24-.84-.24-.85-.48-1.68-.73-2.53-.24-.81-.48-1.63-.72-2.45-.43-1.45-.87-2.89-1.33-4.32-.02-.08-.05-.16-.07-.23-.15-.47-.29-.94-.44-1.4-.13-.44-.28-.89-.42-1.33-.95-2.95-1.93-5.88-2.95-8.76-.6-1.71-1.16-3.44-1.68-5.17-.11-.36-.21-.71-.31-1.07-.16-.56-.32-1.12-.47-1.69-.13-.46-.26-.93-.37-1.39h0c-.35-1.38-.67-2.77-.97-4.15h0c-.14-.68-.28-1.37-.41-2.06h0c-.37-2.07-.68-4.11-.9-6.14h0c-.28-2.54-.41-5.04-.39-7.47,0-.66.01-1.32.04-1.97.03-.77.08-1.53.14-2.28.05-.57.11-1.13.18-1.7,0-.04,0-.06.01-.09.08-.59.16-1.17.25-1.74.05-.29.09-.58.15-.87l.17-.85c.06-.28.12-.56.18-.84v-.02c.05-.18.09-.37.13-.55.02-.09.05-.18.07-.27.06-.25.13-.5.2-.75.09-.33.18-.66.28-.98.23-.74.47-1.46.74-2.18.02-.04.03-.08.05-.11.1-.26.2-.51.31-.77.1-.25.22-.51.32-.76.12-.26.24-.53.37-.79.23-.47.47-.94.71-1.4.15-.27.3-.54.46-.8.12-.22.25-.42.39-.64.29-.46.59-.92.91-1.36.15-.22.32-.44.48-.66.13-.17.27-.35.4-.52.05-.06.1-.12.15-.19.14-.17.28-.35.43-.52.39-.47.81-.92,1.24-1.36.16-.16.32-.33.49-.49.2-.2.4-.39.61-.58.21-.19.42-.37.63-.56.21-.18.43-.36.65-.54.15-.12.3-.24.45-.36,1.12-.86,2.33-1.66,3.64-2.36.18-.11.36-.2.54-.3.19-.11.38-.2.58-.3.32-.16.66-.32.99-.47.11-.05.22-.1.32-.15.21-.09.41-.18.62-.27.93-.39,1.9-.75,2.92-1.08.06-.02.12-.04.19-.06.27-.08.54-.16.82-.25.39-.11.78-.22,1.18-.32.98-.25,1.95-.5,2.91-.74.97-.24,1.91-.48,2.85-.7,11.88-2.9,21.88-4.73,25.54-5.37.26-.05.49-.09.69-.12.12-.02.22-.04.32-.06.02,0,.04,0,.06,0,.08-.02.14-.03.2-.04.02,0,.03,0,.04-.01.05,0,.09-.01.12-.02.04,0,.06-.01.06-.01l4.84.73,44.81,6.79,1.49.23,2.76.42,1.11.17,5.23.8c5.05.91,9.48,1.82,13.37,2.76,1.18.28,2.31.57,3.38.86.78.2,1.54.42,2.27.63,4.49,1.31,8.09,2.69,11,4.22,2.19,1.16,3.98,2.39,5.46,3.74.13.11.25.23.37.35.46.43.87.87,1.26,1.32.1.11.19.22.28.33.95,1.15,1.72,2.37,2.36,3.69.14.29.29.59.42.89.27.61.51,1.23.72,1.87.09.25.17.5.25.76.12.4.25.81.36,1.23.12.46.24.93.34,1.4.12.53.24,1.08.35,1.64.03.13.05.27.08.41.06.31.11.63.16.95.05.26.09.53.13.8.02.12.04.25.06.37.2,1.35.39,2.76.56,4.25.04.4.09.81.14,1.22.04.34.07.68.11,1.03.04.39.08.78.12,1.18.16,1.52.33,3.11.52,4.78,0,.06.01.13.02.19.04.34.07.69.12,1.04.02.19.04.39.06.59.02.22.05.45.08.68.04.32.07.64.11.96.01.1.03.21.04.32.04.3.08.61.12.92.08.6.16,1.21.25,1.8.21,1.47.45,2.93.71,4.39h0c.12.64.23,1.27.36,1.9.02.11.04.21.06.32h0c.04.21.08.41.12.61.63,3.24,1.35,6.45,2.13,9.6,3.42,13.9,7.79,22.83,9.55,31.05.12.58.23,1.15.32,1.72.4,2.32.56,4.61.4,6.97Z"/>
          <g>
            <path class="st13" d="M322.84,329.99s1.35,6.08-5.58,8.73l-1.6-10.4s5.22.44,7.18,1.68Z"/>
            <path class="st7" d="M324.39,199.8c-7.41,2.22-15,3.82-22.59,4.84-19.47,2.61-38.49.39-57.69-3.1-20.25-3.69-41.17-8.01-61.74-4.14-5.84,1.1-11.61,2.94-16.98,5.54,0-.66.01-1.32.04-1.97,5.07-2.37,10.47-4.08,15.93-5.15,18.96-3.7,38.32-.52,57.06,2.91,19.51,3.56,38.83,6.75,58.71,4.72,9.09-.93,18.16-2.72,26.97-5.38.06.31.11.63.16.95.05.26.09.53.13.8Z"/>
            <path class="st7" d="M298.59,175.55c-38.28,12.17-80.02,11.36-117.96-2.47.18-.11.36-.2.54-.3.19-.11.38-.2.58-.3.32-.16.66-.32.99-.47,10.03,3.58,20.37,6.27,30.89,8.04,27.41,4.59,55.38,2.57,81.58-5.36,1.18.28,2.31.57,3.38.86Z"/>
            <path class="st7" d="M326.69,219.12c-2.63,1.06-5.29,2.05-7.99,2.96-14.65,4.93-30.1,7.54-45.56,7.61-17.22.08-33.81-3.95-50.68-6.84-17.02-2.91-33.91-3.39-50.52,1.94-1.02.33-2.04.67-3.05,1.04-.16-.56-.32-1.12-.47-1.69,1.6-.58,3.21-1.11,4.84-1.6,15.62-4.67,31.51-4.35,47.47-1.76,17.47,2.84,34.58,7.22,52.41,7.14,18.26-.08,36.43-3.75,53.3-10.61.08.6.16,1.21.25,1.8Z"/>
            <path class="st7" d="M339.94,268.7c-5.79.31-11.63.05-16.92-2.54-5.83-2.85-9.41-8.02-9.96-14.49-.95-11.14,5.21-22.02,14.33-28.17.12.64.23,1.26.36,1.9-7.78,5.52-13.02,14.57-13.02,24.27,0,7.41,4.04,13.13,10.94,15.72,4.45,1.67,9.22,1.84,13.95,1.59.12.58.23,1.15.32,1.72Z"/>
            <path class="st7" d="M338.94,282.56c-.2.57-.42,1.15-.66,1.73-32.06-8.57-59.88-28.17-91.41-38.3-23.09-7.42-49.16-9.95-72.11-2.21-.02-.08-.05-.16-.07-.23-.15-.47-.29-.94-.44-1.4,7.38-2.52,15.11-4.05,22.93-4.68,34.73-2.79,66.63,12.33,97.02,27.09,14.09,6.84,29.2,13.76,44.73,18Z"/>
            <path class="st7" d="M205.41,287.5c-5.73,4.14-11.63,8.03-17.68,11.67-.09-.62-.18-1.25-.28-1.88,4.49-2.71,8.91-5.58,13.22-8.58,5.29-3.67,20.78-12.39,14.29-20.56-2.45-3.09-6.89-4.14-10.62-4.54-4.47-.48-9.03-.42-13.5.08-3.36.37-6.69,1.01-9.93,1.9-.14-.56-.29-1.12-.43-1.69,5.16-1.4,10.48-2.2,15.87-2.33,6.71-.17,17.92-.06,21.16,7.37,3.57,8.2-6.62,14.62-12.09,18.56Z"/>
            <path class="st7" d="M325.63,303.89c-.41.49-.8.93-1.17,1.35-5.34-2.52-10.36-5.93-14.97-9.5-9.47-7.33-18.39-16.04-29.81-20.3-13.28-4.95-26.48-.74-38.43,5.69-18.63,10.03-36.02,22.65-51.82,36.83-.03-.75-.06-1.49-.1-2.22,6.77-5.99,13.82-11.67,21.12-17.01,10.63-7.76,21.83-15.24,33.67-21.05,11.2-5.49,23.49-8.45,35.6-4.09,10.84,3.9,19.62,11.77,28.46,18.89,5.26,4.24,11.12,8.5,17.45,11.41Z"/>
            <path class="st7" d="M233.81,334.98c-.63.14-1.26.28-1.9.43-3.17-7.77-10.5-12-19.25-11.01-8.54.97-16.55,4.82-23.19,10.38.02-.74.05-1.48.06-2.21,10.22-7.88,26.8-14.95,37.81-6.32,3.18,2.5,5.26,5.48,6.47,8.74Z"/>
            <path class="st7" d="M321.55,318.45c-9.55-1.08-19.16-1.27-28.74.13-10.77,1.57-21.33,5.07-30.32,11.02-1.33.2-2.65.4-3.98.61,4.05-3.06,8.49-5.6,13.19-7.62,16.2-6.95,32.91-7.72,49.68-5.84.02.2.04.4.06.61l.02.22c.03.29.05.58.09.88Z"/>
          </g>
          <path class="st13" d="M276.6,171.14c.75,9.17-5.06,22.68-17.58,23.43-17.27,1.04-35.66-25.98-38.24-31.62.53-.09.81-.14.81-.14l55.02,8.33Z"/>
          <path class="st13" d="M240.07,311.1c.21.42.62.68,1.07.71.22.01.44-.02.64-.12.22-.11,21.78-10.41,46.81-3.74,12.71,3.38,23.68,3.87,32.32,2.54-.03-.51-.05-.99-.07-1.45,0-.06,0-.12,0-.18,0,0,.45-.38,1.21-1.09-8.46,1.55-19.62,1.21-32.79-2.3-25.98-6.92-47.68,3.47-48.59,3.92-.64.31-.9,1.07-.59,1.71Z"/>
        </g>
      </g>
      <g>
        <g>
          <polygon class="st11" points="301.38 602.2 291.36 642.55 320.73 644.5 339.58 602.2 301.38 602.2"/>
          <g>
            <path class="st6" d="M394.97,693l-110.35-1.29c-.8-1.5-1.23-3.62-1.38-6.15-.58-9.34,2.57-24.21,4.14-33.58.19-1.09.35-2.12.48-3.04.22-1.57.36-2.87.37-3.83.09-7.67,6.86-6.27,6.86-6.27,11.04,11.08,23.88-5.19,31.2.28,0,0,3.15,2.32,11.82,10.3,8.66,7.98,23.51,13.36,36.13,18.82,16.3,7.04,20.86,13.93,21.71,18.65.67,3.74-.98,6.12-.98,6.12Z"/>
            <path class="st9" d="M394.97,693l-110.35-1.29c-.8-1.5-1.23-3.62-1.38-6.15l112.71,1.32c.67,3.74-.98,6.12-.98,6.12Z"/>
            <path class="st9" d="M295.87,691.84l-3.28-.04c3.32-3.7,6.44-9.4,6.14-17.6-.4-10.91-6.86-18.34-11.36-22.22.19-1.09.35-2.12.48-3.04,4.86,3.8,13.02,12.1,13.51,25.16.29,7.83-2.35,13.64-5.49,17.74Z"/>
            <path class="st4" d="M336.16,655.9c-.82,0-1.55-.57-1.75-1.4-.23-.98.38-1.96,1.35-2.19l6.91-1.63c.98-.23,1.96.37,2.19,1.35.23.98-.37,1.96-1.35,2.19l-6.91,1.63c-.15.03-.3.05-.44.05Z"/>
            <path class="st4" d="M329.93,650.49c-.82,0-1.55-.57-1.75-1.4-.23-.98.38-1.96,1.35-2.19l6.91-1.63c.98-.23,1.96.37,2.19,1.35.23.98-.38,1.96-1.35,2.19l-6.91,1.63c-.15.03-.3.05-.44.05Z"/>
            <path class="st4" d="M343,659.99c-.82,0-1.55-.57-1.75-1.4-.23-.98.38-1.96,1.35-2.19l6.91-1.63c.98-.23,1.96.37,2.19,1.35.23.98-.37,1.96-1.35,2.19l-6.91,1.63c-.15.04-.3.05-.44.05Z"/>
            <path class="st4" d="M349.85,663.93c-.82,0-1.55-.57-1.75-1.4-.23-.98.37-1.96,1.35-2.19l6.91-1.63c.98-.23,1.96.38,2.19,1.35.23.98-.37,1.96-1.35,2.19l-6.91,1.63c-.15.04-.3.05-.44.05Z"/>
            <path class="st4" d="M357.33,667.58c-.82,0-1.55-.57-1.75-1.4-.23-.98.37-1.96,1.35-2.19l6.91-1.63c.98-.23,1.96.37,2.19,1.35.23.98-.38,1.96-1.35,2.19l-6.91,1.63c-.15.03-.29.05-.44.05Z"/>
            <path class="st4" d="M365.44,670.71c-.82,0-1.55-.57-1.75-1.4-.23-.98.38-1.96,1.35-2.19l6.91-1.63c.98-.23,1.96.37,2.19,1.35.23.98-.37,1.96-1.35,2.19l-6.91,1.63c-.15.03-.3.05-.44.05Z"/>
          </g>
        </g>
        <path class="st1" d="M432.69,447.64c-1.55,12.57-10.71,32.43-22.84,54.21-.46.81-.93,1.63-1.39,2.46-4.31,7.66-8.98,15.52-13.78,23.37-.48.78-.97,1.56-1.44,2.34-4.72,7.64-9.56,15.25-14.34,22.59-.44.68-.89,1.37-1.33,2.04-4.54,6.94-9,13.64-13.23,19.9-.47.69-.94,1.38-1.42,2.07-2.57,3.81-5.06,7.43-7.41,10.85-.49.71-.97,1.41-1.46,2.1-3.32,4.8-6.36,9.13-9,12.87-.47.67-.93,1.31-1.38,1.94-5.72,8.08-9.25,12.9-9.25,12.9l-37.46-6.65,18.49-69.5c10.78-38.69,15.36-60.28,29.65-77.32l-78.55-12.04s18.1-78.63,75.82-79.67c0,0,95.6,32.86,90.31,75.55Z"/>
        <g>
          <path class="st10" d="M378.89,552.61c-.44.68-.89,1.37-1.33,2.04-6.2-6.32-10.37-14.58-11.36-23.54-1.22-11.08,3.07-21.72,3.67-32.69.56-10.32-3.73-23.57-15.94-24.22-1.55-.08-1.55-2.49,0-2.41,7.54.4,13.64,5.7,16.4,12.58,3.85,9.55,1.38,20.08-.43,29.77-2.01,10.75-2.24,21.01,3.28,30.77,1.59,2.82,3.52,5.4,5.71,7.71Z"/>
          <path class="st10" d="M409.84,501.85c-.46.81-.93,1.63-1.39,2.46-2.19-3.24-4.7-6.26-7.56-8.85-3.41-3.1-9.33-6.09-12.35-.72-1.64,2.93-1.53,6.58-1.23,9.82.76,8.18,3.34,16.05,7.36,23.12-.48.78-.97,1.56-1.44,2.34-1.51-2.53-2.84-5.18-3.97-7.93-2.99-7.25-5.65-16.5-4.21-24.41,1.29-7.05,7.42-10.44,13.83-6.73,4.28,2.47,7.93,6.48,10.97,10.9Z"/>
          <path class="st10" d="M353.34,560.24c-5.51-13.38,1.44-40.89-18.46-44.32-.19.77-.38,1.54-.57,2.31,9.49,1.58,12.79,11.97,13.6,20.36.72,7.56.23,15.42,3.19,22.59,2.54,6.16,7.46,10.59,11.82,15.44.48-.68.94-1.38,1.42-2.07-4.1-4.47-8.64-8.61-11-14.31Z"/>
          <path class="st10" d="M355.51,587.47c-.49.71-.97,1.41-1.46,2.1-2.24-3.11-4.47-6.23-6.72-9.34-2-2.78-4.06-5.87-7.07-7.68-4.1-2.48-8.88-1.58-11.07,2.85-3.31,6.69,1.91,13.87,6.23,18.68,2.87,3.19,6.11,5.97,9.64,8.37-.47.67-.93,1.31-1.38,1.94-10.24-7.06-24.19-20.85-15.46-32.05,4.49-5.75,11.96-3.82,16.52.76,3.03,3.04,5.37,6.87,7.86,10.34.97,1.35,1.94,2.7,2.91,4.05Z"/>
        </g>
        <path class="st3" d="M308.24,601.23c-.13,0-.26-.04-.39-.08-.75-.27-1.14-1.1-.87-1.85.18-.5,18.24-50.66,27.25-86.95,7.41-29.84,26.18-49.59,33.18-56.12-8.84-.83-23.44-3.9-24.14-4.05-.78-.17-1.28-.93-1.11-1.71.17-.78.93-1.28,1.71-1.11.2.04,19.78,4.17,27.13,4.19.6,0,1.16.39,1.36.97.2.58.02,1.22-.46,1.61-.26.21-25.96,21.08-34.86,56.93-9.05,36.43-27.16,86.73-27.34,87.23-.22.62-.83,1-1.46.95Z"/>
        <path class="st3" d="M340.56,609.04c-.07,0-.13-.01-.2-.03l-39.87-8.34c-.78-.16-1.28-.93-1.12-1.71.16-.78.93-1.29,1.71-1.12l39.87,8.34c.78.16,1.28.93,1.12,1.71-.15.72-.8,1.2-1.51,1.15Z"/>
      </g>
      <g>
        <g>
          <polygon class="st11" points="494.75 560.8 519.8 591.57 545.08 573.76 521.83 535.31 494.75 560.8"/>
          <g>
            <path class="st6" d="M630.03,564.13l-85.66,69.59c-1.58-.64-3.26-2-4.99-3.84-6.42-6.81-13.51-20.25-18.3-28.46-.55-.96-1.08-1.85-1.57-2.65-.83-1.35-1.56-2.44-2.16-3.19-4.83-5.95,1.26-9.21,1.26-9.21,15.57,1.46,15.03-19.26,24.16-19.74,0,0,3.91-.24,15.68.36,11.77.6,26.62-4.76,39.81-8.64,17.03-5.01,24.94-2.63,28.62.45,2.91,2.44,3.16,5.33,3.16,5.33Z"/>
            <path class="st9" d="M630.03,564.13l-85.66,69.59c-1.58-.64-3.26-2-4.99-3.84l87.49-71.07c2.91,2.44,3.16,5.33,3.16,5.33Z"/>
            <path class="st9" d="M553.11,626.62l-2.54,2.07c.18-4.96-1.06-11.35-6.54-17.46-7.29-8.13-17-9.71-22.94-9.82-.55-.96-1.08-1.85-1.57-2.65,6.16-.18,17.74.97,26.48,10.7,5.23,5.84,6.92,11.99,7.13,17.15Z"/>
            <path class="st4" d="M561.1,573.23c-.63.51-1.56.55-2.24.04-.8-.6-.96-1.74-.36-2.55l4.27-5.67c.6-.8,1.74-.96,2.55-.36.8.6.96,1.74.36,2.55l-4.27,5.67c-.09.12-.19.23-.31.32Z"/>
            <path class="st4" d="M552.85,573.05c-.63.51-1.56.55-2.24.04-.8-.6-.96-1.74-.36-2.55l4.27-5.68c.6-.8,1.74-.96,2.55-.36.8.6.96,1.74.36,2.55l-4.27,5.68c-.09.12-.19.23-.31.32Z"/>
            <path class="st4" d="M568.97,571.99c-.63.51-1.56.55-2.24.04-.8-.6-.96-1.74-.36-2.55l4.27-5.68c.6-.8,1.74-.96,2.55-.36.8.6.96,1.74.36,2.55l-4.27,5.68c-.09.12-.19.23-.31.32Z"/>
            <path class="st4" d="M576.75,570.63c-.63.51-1.56.55-2.24.04-.8-.6-.96-1.74-.36-2.55l4.27-5.68c.6-.8,1.74-.96,2.55-.36.8.6.96,1.74.36,2.55l-4.27,5.68c-.09.12-.19.23-.31.32Z"/>
            <path class="st4" d="M584.84,568.66c-.63.51-1.56.55-2.24.04-.8-.6-.96-1.74-.36-2.55l4.27-5.68c.6-.8,1.74-.96,2.55-.36.8.6.96,1.74.36,2.55l-4.27,5.67c-.09.12-.19.23-.31.32Z"/>
            <path class="st4" d="M593.08,565.88c-.63.51-1.56.55-2.24.04-.8-.6-.96-1.74-.36-2.55l4.27-5.68c.6-.8,1.74-.96,2.55-.36.8.6.96,1.74.36,2.55l-4.27,5.68c-.09.12-.19.23-.31.32Z"/>
          </g>
        </g>
        <path class="st1" d="M538.4,556.13l-32.8,20.97s-25.76-23.86-57.57-52.03c-31.81-28.19-61.46-61.41-73.86-86.54,0,0-93.83,40.5-144.7,30.38-21.18-4.2-30.71-18.71-34.64-34.21-.59-2.3-1.05-4.64-1.39-6.97-.06-.37-.11-.74-.15-1.11-.15-.99-.27-1.99-.36-2.97-1.87-18,1.96-34.34,1.96-34.34,0,0,2.04-.38,5.72-1.02,1-.18,2.13-.37,3.37-.59,10.26-1.78,28.32-4.8,49.66-7.89h0c1.08-.15,2.16-.31,3.26-.47h0c38.5-5.48,86.61-10.98,118.91-9.86,4.3.14,8.31.41,11.99.81.92.1,1.81.21,2.68.32h0c1.09.15,2.15.31,3.16.47,3.35.56,6.32,1.27,8.82,2.15,3.41,1.2,7.18,3.44,11.22,6.53.64.49,1.28,1,1.93,1.53,4.72,3.84,9.77,8.77,15.05,14.52.38.41.76.83,1.14,1.26,24.85,27.41,54.35,72.35,76.01,107.48.5.81.99,1.63,1.48,2.42,1.85,3.01,3.64,5.93,5.35,8.76.4.67.8,1.33,1.2,1.98,13.59,22.49,22.53,38.43,22.53,38.43Z"/>
        <g>
          <path class="st10" d="M393.65,371.08c-6.27,5.55-14.2,9.55-22.32,11.6-21.74,5.5-44.09.23-66.13,1.38-11.07.58-22.17,2.86-31.75,8.66-8.13,4.92-14.89,11.73-21.76,18.22-11.76,11.13-25.3,22.21-42.55,20.54-5.58-.55-10.99-2.24-15.87-4.88-.15-.99-.27-1.99-.36-2.97,8.25,4.96,18.25,6.98,27.75,4.71,16.31-3.92,27.45-17.97,39.47-28.57,5.76-5.09,11.97-9.7,19.09-12.71,8.64-3.65,18.03-5.09,27.36-5.47,20.9-.84,42.13,3.92,62.8-.92,7.43-1.74,14.96-5.19,21.09-10.07h0c1.09.15,2.15.31,3.16.47Z"/>
          <path class="st10" d="M256.9,379.34c-4.55,6.8-11.14,12.23-19,15.09-12.52,4.55-26.84,1.78-37.29-6.15,1-.18,2.13-.37,3.37-.59,9.33,6.23,21.31,8.33,32.19,4.78,7.06-2.3,13.08-6.86,17.47-12.66h0c1.08-.15,2.16-.31,3.26-.47Z"/>
          <path class="st10" d="M509.32,506.96c-13.74-.32-24.89-10.36-32.27-21.47-8.36-12.56-13.57-27.39-24.54-38.1-8.7-8.49-20.03-13.53-29.46-21.1-8.91-7.15-15.13-16.95-14.6-28.71.29-6.3,2.2-12.37,5.25-17.83.64.49,1.28,1,1.93,1.53-4.03,7.3-5.94,15.67-4.15,23.95,2.56,11.84,12.48,19.33,22.07,25.55,9.24,6,18.65,11.62,25.57,20.4,13.73,17.42,22.66,51.91,48.72,53.35.5.81.99,1.63,1.48,2.42Z"/>
          <path class="st10" d="M416.37,477.41c10.87-12.36,27.17,3.87,34.11,12.55,8.44,10.53,13.86,23.14,15.98,36.44.24,1.53,2.57.88,2.33-.64-2.47-15.43-9.4-29.93-19.99-41.44-7.93-8.62-23.62-20.59-34.14-8.61-1.02,1.16.68,2.88,1.71,1.71h0Z"/>
          <path class="st10" d="M505.46,536.63c-2.35,9.24-1.73,18.88,1.6,27.78.54,1.46-1.79,2.08-2.33.64-4.07-10.9-4.15-23.06-.06-33.98,1.87-5,5.2-11.76,9.99-15.35.4.67.8,1.33,1.2,1.98-5.54,4.16-9.04,13.59-10.4,18.92Z"/>
          <path class="st10" d="M233.34,454.82c23.69-3.82,33.52-28.6,49.26-43.44,9.21-8.68,23.98-15.52,33.28-3.23,5.4,7.12,9.5,14.87,19.82,13.69,7.17-.82,12.98-5.39,19.74-7.49,3.85-1.19,8.51-1.66,12.09.58,3.49,2.18,5,6.92,2.63,10.41-.88,1.29,1.22,2.5,2.08,1.22,2.42-3.57,1.8-8.12-.88-11.41-3.06-3.76-8.2-4.61-12.77-3.97-7.13.99-12.9,5.65-19.72,7.58-8.03,2.27-13.4-1.05-17.87-7.47-2.84-4.07-5.53-8.5-10.14-10.77-4.9-2.41-10.64-1.93-15.66-.15-11.33,4.01-19.37,14.17-26.45,23.36-9.44,12.25-19.72,26.15-36.04,28.78-1.53.25-.88,2.57.64,2.33h0Z"/>
          <path class="st10" d="M273.42,452.77c2.73-7.92,8.5-14.5,16.07-18.14,3.8-1.82,8.57-3.27,12.78-2.24,5.88,1.44,6.78,7.48,7.2,12.61.13,1.54,2.54,1.55,2.41,0-.4-4.8-1.04-10.28-5.31-13.28-3.96-2.79-9.25-2.32-13.65-1-10.31,3.11-18.36,11.32-21.84,21.41-.51,1.47,1.82,2.1,2.33.64h0Z"/>
        </g>
        <path class="st3" d="M412.25,491.64c-.28-.02-.55-.12-.78-.3-23.12-17.92-35.56-44.05-38.48-50.73-12.11,7.01-49.17,17.93-50.81,18.41-.77.22-1.57-.21-1.79-.98-.22-.77.21-1.57.98-1.79.42-.12,41.7-12.27,51.49-18.95.36-.25.82-.32,1.24-.19.42.13.76.45.92.86.12.31,12.31,31.01,38.23,51.09.63.49.75,1.4.26,2.03-.31.4-.78.59-1.24.56Z"/>
        <path class="st3" d="M498.51,569.97c-.43-.03-.85-.26-1.11-.65-.44-.67-.25-1.56.41-2l33.38-21.95c.67-.44,1.56-.25,2,.41.44.67.25,1.56-.41,2l-33.38,21.95c-.28.18-.59.26-.89.23Z"/>
        <path class="st3" d="M506.56,564.47c-.31.31-.73.45-1.13.42-.34-.02-.66-.16-.92-.41-.55-.55-55.15-54.62-81.49-77.92-23.78-21.04-38.16-53.7-41.07-60.73-9.76,3.85-70.6,27-127.15,30.1-25.59,1.41-41.66-6.06-50.63-12.58-4.16-3.01-7.2-6.09-9.35-8.65-.59-2.31-1.05-4.65-1.4-6.98.4.71,1.27,2.13,2.69,3.97,2.05,2.62,5.26,6.07,9.9,9.42,8.58,6.19,23.98,13.28,48.63,11.93,60.88-3.35,126.89-30.16,127.55-30.43.36-.15.76-.15,1.12,0,.36.15.64.44.78.81.14.37,14.74,37.87,40.84,60.95,26.39,23.35,81.05,77.49,81.6,78.03.57.57.57,1.48,0,2.05Z"/>
      </g>
    </g>
    <g>
      <path class="st6" d="M275.18,373.24l149.63-5.18c.29-.01.51-.25.5-.54l-.64-18.59c-.01-.29-.25-.51-.54-.5l-149.63,5.18c-.29.01-.51.25-.5.54l.64,18.59c0,.29.25.51.54.5Z"/>
      <path class="st6" d="M441.06,367.5c5.67-.2,10.5-4.18,11.77-9.71l24.52-106.5c1.5-6.51-3.58-12.67-10.26-12.44l-67.46,2.33c-4.55.16-8.44,3.32-9.52,7.75l-29.6,121.35,80.54-2.79Z"/>
      <path class="st5" d="M398.73,343.15l-1.52,4.83,4.58-.08-1.14,5.74-5.3.09-1.68,5.25-6.05.1,1.68-5.25-3.74.06-1.68,5.25-6.05.1,1.68-5.25-4.58.08,1.14-5.74,5.3-.09,1.52-4.83-4.58.08,1.14-5.74,5.3-.09,1.68-5.25,6.05-.1-1.68,5.25,3.74-.06,1.68-5.25,6.05-.1-1.68,5.25,4.58-.08-1.14,5.74-5.3.09ZM392.68,343.25l-3.74.06-1.52,4.83,3.74-.06,1.52-4.83Z"/>
      <g>
        <path class="st2" d="M468.04,268.52c-1.99,6.93-8.73,12.69-15.06,12.87-6.33.18-9.86-5.3-7.87-12.23,1.99-6.93,8.73-12.69,15.06-12.87,6.33-.18,9.86,5.3,7.87,12.23Z"/>
        <g>
          <path class="st6" d="M455.37,266.49c-.4,1.39-1.17,2.52-1.72,2.54-.55.02-.68-1.1-.28-2.48.4-1.39,1.17-2.52,1.72-2.54.55-.02.67,1.1.28,2.48Z"/>
          <path class="st6" d="M461.35,266.33c-.4,1.39-1.17,2.52-1.72,2.54-.55.02-.67-1.1-.28-2.48.4-1.39,1.17-2.52,1.72-2.54s.67,1.1.28,2.48Z"/>
        </g>
        <path class="st6" d="M454.92,274.95c-4.93.14-4.51-5.23-4.51-5.28.03-.29.28-.59.57-.66.29-.07.5.11.47.4-.02.19-.33,4.56,3.78,4.45,4.12-.11,6.32-4.54,6.41-4.73.14-.3.46-.49.71-.43.25.06.34.34.19.64-.03.05-2.7,5.48-7.63,5.62Z"/>
      </g>
      <g>
        <path class="st6" d="M390.12,248.94l-29.35,120.35-7.71.27,29.35-120.35c1.09-4.43,4.97-7.6,9.53-7.75l7.71-.27c-4.55.16-8.44,3.33-9.53,7.75Z"/>
        <path class="st9" d="M361.51,368.53c-.07,0-.13-.01-.2-.03-.61-.15-.98-.76-.83-1.37l29.1-120.1c.15-.61.76-.98,1.37-.83.61.15.98.76.83,1.37l-29.1,120.1c-.13.54-.63.9-1.17.86Z"/>
      </g>
      <path class="st9" d="M411.19,306.37c-1.3,6.68,3.01,11.91,9.64,11.68,6.63-.23,13.06-5.83,14.36-12.51,1.3-6.68-3.01-11.91-9.64-11.68-6.63.23-13.06,5.83-14.36,12.51Z"/>
    </g>
    <g>
      <path class="st11" d="M362.18,332.15l-.18.73-4.14,17.01-.17.83s-53.56,2.08-69.73,2.08c-1.37-.18-2.74-.36-4.13-.53l-16.21-2.01c-5.51-.71-11.16-1.43-16.96-2.38-5.81-.96-11.78-2.11-18.06-3.83-3.14-.87-6.36-1.89-9.67-3.17-3.31-1.29-6.72-2.82-10.2-4.83-3.48-2.02-7.03-4.51-10.38-7.7l-1.25-1.23-.3-.31c-.11-.1-.26-.28-.39-.41l-.78-.88c-.25-.29-.54-.61-.74-.87l-.64-.81-.62-.81c-.2-.28-.36-.5-.54-.76-1.46-2.05-2.46-3.82-3.41-5.56-1.82-3.42-3.18-6.52-4.4-9.54-1.21-3-2.25-5.91-3.22-8.78-1.92-5.73-3.53-11.32-5.04-16.87-1.51-5.54-2.88-11.05-4.17-16.53-2.59-10.97-4.91-21.87-7.04-32.78-1.05-5.46-2.12-10.91-3.12-16.36l-1.49-8.2-.73-4.12-.73-4.22c-2.06-11.94,5.94-23.29,17.89-25.35,11.94-2.06,23.29,5.94,25.35,17.89.06.35.11.7.16,1.05l.03.27.46,3.86.5,3.94,1.09,7.92c.75,5.28,1.52,10.55,2.39,15.81,1.73,10.5,3.6,20.96,5.75,31.23,1.09,5.13,2.24,10.22,3.48,15.2,1.24,4.98,2.6,9.86,4.07,14.47.74,2.3,1.5,4.52,2.29,6.58.78,2.05,1.62,3.94,2.35,5.32.35.65.7,1.25.82,1.41,0,.01.02.03.02.04.01.01.03.02.04.04.57.57,1.49,1.26,2.7,1.99,2.47,1.47,6.15,2.93,10.35,4.11,4.21,1.2,8.92,2.18,13.84,3.02,9.86,1.71,20.54,2.84,31.54,4.22,11.02,1.38,22.4,2.99,34.18,5.62,5.89,1.33,11.88,2.93,17.95,5.06,6.06,2.13,12.21,4.74,18.28,8.19l.1.06c.73.41,2.15.41,2.8.89Z"/>
      <path class="st0" d="M230.91,300.57c-3.93.84-7.44,2.57-10.47,5.22-.85.74-2.09-.5-1.24-1.24,3.25-2.84,7.02-4.77,11.25-5.67,1.1-.24,1.57,1.46.47,1.69h0Z"/>
      <path class="st0" d="M228.76,300.72c-2.92-.21-5.85-.42-8.77-.63-1.12-.08-1.13-1.84,0-1.76,2.92.21,5.85.42,8.77.63,1.12.08,1.13,1.84,0,1.76h0Z"/>
      <path class="st0" d="M235.98,345.12c12.58,2.43,24.64,6.21,37.51,7.09,1.12.08,1.13,1.83,0,1.76-13.02-.89-25.24-4.7-37.97-7.15-1.11-.21-.64-1.91.47-1.69h0Z"/>
    </g>
    <path class="st11" d="M230.24,298.78s.07.07.1.1c0,0,0,0,0,0-.03-.04-.07-.08-.11-.11-.01-.01-.06-.05-.04-.03l.05.05Z"/>
    <polygon class="st11" points="230.42 298.98 230.42 298.98 230.42 298.98 230.42 298.98"/>
    <g>
      <path class="st2" d="M259.89,49.48s-31.11-11.24-46.12,7.63c-15.01,18.87-4.53,52.65-4.53,52.65,0,0-2.2,8.17-19.76,12.83-17.56,4.66-13.15,32.42,4.56,30.82,0,0,3.05,25.36,23.27,13.81,20.23-11.54,47.7-4.12,47.7-4.12,0,0,9.31,10.2,22.16,5.67,12.85-4.53,5.47-14.84,5.47-14.84,0,0,11.82,7.21,20.72-3.88,9.45-11.78-10.32-23.94-11.33-30.69-3.65-24.47,4.98-18.29,15.76-30.2,13.16-14.54-6.4-30.42-17.19-19.74,0,0,15.69-12.2.92-24.18-13.5-10.95-41.65,4.26-41.65,4.26Z"/>
      <g>
        <path class="st15" d="M290.77,103.59s4.53.5,5.28,6.31c.75,5.82-2.39,15.43-8.23,14.11s2.95-20.42,2.95-20.42Z"/>
        <path class="st4" d="M274.79,130.51c.87-6.94,7.22-11.87,14.16-11,6.94.87,11.87,7.22,11,14.16-.87,6.94-7.22,11.87-14.16,11-6.94-.87-11.87-7.22-11-14.16ZM277.07,130.8c-.71,5.68,3.33,10.88,9.01,11.6,5.68.71,10.88-3.33,11.6-9.01.71-5.68-3.33-10.88-9.01-11.6-5.68-.71-10.88,3.33-11.6,9.01Z"/>
        <g>
          <line class="st11" x1="273.72" y1="148.25" x2="273.72" y2="148.26"/>
          <path class="st11" d="M225.32,163.24s7.58,15.11,24.49,17.96c21.49,3.61,24.16-5.62,24.16-5.62-.84-2.95-1.32-5.86-1.51-8.97-.07-1.18-.1-2.39-.08-3.64.03-3.42.35-7.14.9-11.44.13-1.01.27-2.05.42-3.13l.02-.13c-14.85-3.89-26.91-10.8-35.01-22.01l-2.21-1.39-1.49-.94-.3.87.22,2.78c1.07,13.08-2.12,23.82-9.61,35.67Z"/>
        </g>
        <path class="st6" d="M248.78,137.97c2.99,7.2,10.01,19.98,23.61,24.99.03-3.42.35-7.14.9-11.44.13-1.01.27-2.05.42-3.13-.29.03-.6.05-.9.06-8.15.35-16.89-4.05-24.02-10.48Z"/>
        <path class="st11" d="M217.36,101.98c-.7,8.08,5.28,18.57,15.83,19.78h.06s.22.04.22.04c.13.48.29.95.45,1.44.07.21.15.42.22.63,0,.02.01.04.03.06,5.39,14.3,24.25,24.07,34.8,25.27,3.77.43,6.38-.2,7.21-.31,11.42-1.46,14.84-16.43,14.08-28.17-.12-1.7-.31-3.33-.59-4.85-.02-.1-.04-.21-.06-.31,0,0,5.16-15.87,6.66-22.86,2.89-13.55-3.76-28.15-33.56-33.49-29.8-5.34-38.62,12.68-41.59,22.38-.5,1.62-1.02,11.46.49,13.19-2.97,1.2-4.02,4.49-4.25,7.2Z"/>
        <path class="st6" d="M269.35,109.87c-.46-.03-.88-.35-.99-.83-.25-1.04-1.16-3.28-2.36-3.55-1.72-.39-3.73,1.06-3.75,1.07-.48.36-1.16.25-1.51-.22-.36-.48-.26-1.16.22-1.51.11-.08,2.81-2.05,5.51-1.44,2.83.64,3.88,4.7,3.99,5.16.14.58-.22,1.17-.8,1.3-.11.03-.21.03-.31.03Z"/>
        <path class="st6" d="M280.74,111.24c-.1,0-.21-.03-.31-.06-.56-.2-.85-.82-.65-1.39.13-.36,1.35-3.54,3.74-3.8,2.21-.24,4.12,1.47,4.33,1.66.44.41.46,1.09.05,1.53-.41.44-1.09.46-1.53.05-.37-.34-1.57-1.21-2.62-1.1-.79.09-1.65,1.6-1.94,2.38-.17.46-.61.74-1.08.71Z"/>
        <path class="st15" d="M233.18,121.76h.06s.22.04.22.04c.13.48.29.95.45,1.44.07.21.15.42.22.63,0,.02.01.04.03.06,1.22-.09,2.77-.41,4.22-1.26.85-.5,1.67-1.19,2.36-2.15.36-.49.25-1.17-.24-1.53-.49-.36-1.17-.25-1.53.24-.77,1.06-1.79,1.68-2.8,2.05-.68.25-1.36.38-1.96.43-.39.04-.74.05-1.03.06Z"/>
        <g class="st17">
          <path class="st15" d="M284.32,117.87c-.08,1.2,2.47,2.38,5.95,2.85-.12-1.7-.31-3.33-.59-4.85-3.04.12-5.29.9-5.36,2Z"/>
        </g>
        <path class="st4" d="M222.32,116.06c.62.56,1.24,1.13,1.88,1.67-3.45,1.34-6.07,4.47-6.56,8.39-.71,5.68,3.33,10.88,9.01,11.6,5.68.71,10.88-3.33,11.6-9.01.67-5.37-2.9-10.32-8.1-11.44-.77-.32-1.27-1.34-1.21-2.49.2.02.39.03.59.06,6.94.87,11.87,7.22,11,14.16-.87,6.94-7.22,11.87-14.16,11-6.94-.87-11.87-7.22-11-14.16.55-4.38,3.28-7.94,6.97-9.77Z"/>
        <path class="st15" d="M272.48,133.77c-1.37-.28-2.11-1.24-2.16-1.3-.21-.28-.15-.68.13-.89.28-.21.68-.16.89.12.05.06,1.01,1.25,2.79.73.34-.1.69.09.79.43.1.34-.09.69-.43.79-.77.23-1.44.23-2.01.11Z"/>
        <path class="st15" d="M273.83,129.55s-.07-.01-.11-.02c-4.53-.96-5.87-4.66-5.93-4.82-.18-.51.09-1.08.6-1.25.51-.18,1.07.09,1.25.6.05.13,1.07,2.83,4.48,3.55.03,0,.06.01.09.02,3.43.69,5.2-.97,5.22-.99.39-.38,1.01-.37,1.39.02.38.39.37,1.01-.02,1.39-.1.1-2.54,2.4-6.98,1.5Z"/>
        <path class="st0" d="M276.92,121.05c.17.02.34,0,.51-.08l4.33-2.05c.29-.14.49-.42.52-.75.03-.32-.12-.64-.38-.83-3.08-2.2-4.78-5.31-5.36-9.81-.06-.5-.52-.86-1.03-.79-.5.06-.86.53-.79,1.03.57,4.44,2.15,7.7,4.92,10.13l-2.99,1.42c-.46.22-.65.76-.44,1.22.14.29.42.48.72.52Z"/>
        <path class="st2" d="M270.28,94.07c2.37.6,3.87-2.54,1.87-3.96-1.04-.74-2.47-1.25-4.41-1.09-8.39.68-12.23,7.61-12.23,7.61,0,0,7.99-3.16,12.29-2.93.99.05,1.8.2,2.47.37Z"/>
        <path class="st2" d="M281.95,96.08c-2.45,0-3.12-3.42-.84-4.3,1.19-.46,2.71-.6,4.54.03,7.96,2.73,7.76,8.64,7.76,8.64,0,0-4.75-3.28-8.97-4.12-.98-.2-1.79-.25-2.49-.25Z"/>
        <g class="st17">
          <path class="st15" d="M265.64,116.41c-.09,1.37-3.58,2.25-7.8,1.96-4.21-.29-7.55-1.64-7.46-3.01.09-1.37,3.58-2.25,7.8-1.96,4.21.29,7.55,1.64,7.46,3.01Z"/>
        </g>
        <path class="st15" d="M234.73,115.54c-.43-.11-.77-.48-.82-.95-.8-7.73-9.58-11.81-9.67-11.85-.55-.25-.79-.9-.54-1.45.25-.55.9-.79,1.45-.55.41.18,10.02,4.62,10.94,13.62.06.6-.38,1.14-.98,1.2-.13.01-.26,0-.38-.03Z"/>
        <path class="st15" d="M225.62,110.48c-.13-.03-.26-.09-.38-.18-.49-.36-.59-1.04-.23-1.53.1-.13,2.45-3.25,6.87-2.68.6.08,1.02.63.95,1.22-.08.6-.62,1.02-1.22.95-3.15-.4-4.81,1.79-4.83,1.81-.27.37-.73.52-1.15.41Z"/>
      </g>
      <path class="st2" d="M259.16,75.31s.91,8.68-6.72,12.96c-6.32,3.55-10.01,4.37-10.01,4.37,0,0,7.85,24.28-1.32,26.91-9.17,2.63-5.91-22.93-19.49-24.77,0,0-4.83-1.45-3.6-10,1.23-8.55,17.94-31.75,40.25-28.49,22.31,3.26,41.28,15.98,40.74,31.8-.55,15.82-3.67,12.45-3.67,12.45,0,0,2.37-9.04-7.88-16.83-8.5-6.47-28.29-8.41-28.29-8.41Z"/>
    </g>
  </g>
  <g>
    <g>
      <g>
        <g>
          <path class="st6" d="M889.78,561.37h-18.24c-1.12,0-2.03-.91-2.03-2.03v-77.22h22.3v77.22c0,1.12-.91,2.03-2.03,2.03Z"/>
          <path class="st6" d="M946.83,651.87v14.16h-10.26v-6.4c0-1.8-1.46-3.27-3.27-3.27h-43.94c-1.52,0-2.75,1.23-2.75,2.75v6.92h-11.93v-6.92c0-1.52-1.23-2.75-2.75-2.75h-43.6c-1.8,0-3.27,1.46-3.27,3.27v6.4h-10.26v-14.16c0-3.18,2.58-5.76,5.76-5.76h54.11v-182.48h11.93v182.48h54.44c3.18,0,5.76,2.58,5.76,5.76Z"/>
        </g>
        <g>
          <path class="st6" d="M835.37,675.19c0,8.44-6.84,15.27-15.27,15.27s-15.27-6.84-15.27-15.27,6.84-15.27,15.27-15.27,15.27,6.84,15.27,15.27Z"/>
          <path class="st9" d="M820.09,683.93c-4.82,0-8.75-3.92-8.75-8.75s3.92-8.75,8.75-8.75,8.75,3.92,8.75,8.75-3.92,8.75-8.75,8.75Z"/>
        </g>
        <g>
          <path class="st6" d="M896.1,675.19c0,8.44-6.84,15.27-15.27,15.27s-15.27-6.84-15.27-15.27,6.84-15.27,15.27-15.27,15.27,6.84,15.27,15.27Z"/>
          <path class="st9" d="M880.83,683.93c-4.82,0-8.75-3.92-8.75-8.75s3.92-8.75,8.75-8.75,8.75,3.92,8.75,8.75-3.92,8.75-8.75,8.75Z"/>
        </g>
        <g>
          <path class="st6" d="M957.05,675.19c0,8.44-6.84,15.27-15.27,15.27s-15.27-6.84-15.27-15.27,6.84-15.27,15.27-15.27,15.27,6.84,15.27,15.27Z"/>
          <path class="st9" d="M941.78,683.93c-4.82,0-8.75-3.92-8.75-8.75s3.92-8.75,8.75-8.75,8.75,3.92,8.75,8.75-3.92,8.75-8.75,8.75Z"/>
        </g>
      </g>
      <g>
        <path class="st9" d="M1069.4,202.21l-64.83,270.06c-2.09,8.71-9.89,14.86-18.85,14.86h-152.16c-12.58,0-21.82-11.79-18.82-24l66.29-270.06c2.13-8.67,9.9-14.76,18.82-14.76h150.69c12.53,0,21.77,11.72,18.85,23.91Z"/>
        <path class="st6" d="M1052.66,202.21l-64.83,270.06c-2.09,8.71-9.89,14.86-18.85,14.86h-152.16c-12.58,0-21.82-11.79-18.82-24l66.29-270.06c2.13-8.67,9.9-14.76,18.82-14.76h150.69c12.53,0,21.77,11.72,18.85,23.91Z"/>
        <path class="st9" d="M968.98,473.91h-152.16c-2.61,0-4.16-1.48-4.85-2.36-.69-.88-1.76-2.74-1.13-5.27l66.29-270.06c.68-2.76,3.14-4.69,5.98-4.69h150.69c2.6,0,4.15,1.47,4.84,2.35.69.88,1.76,2.72,1.15,5.25l-64.83,270.06c-.67,2.78-3.13,4.72-5.99,4.72ZM883.12,193.15c-2.09,0-3.9,1.42-4.4,3.45l-66.29,270.06c-.46,1.86.33,3.23.83,3.88.51.65,1.65,1.74,3.57,1.74h152.16c2.1,0,3.92-1.43,4.41-3.47l64.83-270.06c.45-1.86-.34-3.22-.85-3.86-.51-.65-1.65-1.73-3.56-1.73h-150.69Z"/>
      </g>
      <path class="st9" d="M726.02,495.13h255.55c10.18,0,19.03-7.02,21.33-16.94l3.42-14.71h-272.94l-7.36,31.65Z"/>
      <path class="st6" d="M729.53,495.13h235.62c10.18,0,19.03-7.02,21.33-16.94l3.42-14.71h-260.37c-7.36,0-13.75,5.07-15.41,12.24h0c-2.31,9.92,5.22,19.41,15.41,19.41Z"/>
    </g>
    <g>
      <polygon class="st11" points="668.87 621.25 662.2 637.2 634.68 629.68 641.34 613.72 668.87 621.25"/>
      <g>
        <path class="st5" d="M556.94,655.22l100.21,27.4c1.11-1.15,2.04-2.97,2.82-5.22,2.92-8.33,3.88-22.63,4.86-31.54.11-1.04.22-2.01.34-2.89.2-1.48.41-2.7.64-3.57,1.88-6.98-4.6-7.47-4.6-7.47-12.83,7.2-20.28-10.89-28.31-7.82,0,0-3.45,1.29-13.34,6.29-9.89,5-24.7,6.04-37.52,7.72-16.55,2.16-22.45,7.24-24.43,11.3-1.57,3.22-.68,5.8-.68,5.8Z"/>
        <path class="st13" d="M556.94,655.22l100.21,27.4c1.11-1.15,2.04-2.97,2.82-5.22l-102.35-27.99c-1.57,3.22-.68,5.8-.68,5.8Z"/>
        <path class="st13" d="M646.93,679.82l2.98.81c-2.05-4.21-3.42-10.2-1.05-17.56,3.16-9.79,10.91-14.86,15.98-17.22.11-1.04.22-2.01.34-2.89-5.37,2.19-14.88,7.6-18.67,19.33-2.27,7.03-1.37,12.99.42,17.52Z"/>
        <path class="st4" d="M619.68,636.79c.74.2,1.55-.12,1.94-.82.46-.83.16-1.87-.66-2.33l-5.84-3.27c-.82-.46-1.87-.17-2.33.66-.46.83-.16,1.87.66,2.33l5.84,3.27c.12.07.25.12.39.16Z"/>
        <path class="st4" d="M626.92,633.62c.74.2,1.55-.12,1.94-.82.46-.83.16-1.87-.66-2.33l-5.84-3.27c-.82-.46-1.87-.17-2.33.66-.46.83-.16,1.87.66,2.33l5.84,3.27c.12.07.25.12.39.16Z"/>
        <path class="st4" d="M612.44,638.72c.74.2,1.55-.12,1.94-.82.46-.83.16-1.87-.66-2.34l-5.84-3.27c-.83-.46-1.87-.17-2.33.66-.46.83-.16,1.87.66,2.34l5.84,3.27c.12.07.25.12.39.16Z"/>
        <path class="st4" d="M605.23,640.52c.74.2,1.55-.12,1.94-.82.46-.83.16-1.87-.66-2.33l-5.84-3.27c-.83-.46-1.87-.17-2.33.66-.46.83-.16,1.87.66,2.33l5.84,3.27c.12.07.25.12.39.16Z"/>
        <path class="st4" d="M597.53,641.89c.74.2,1.55-.12,1.94-.82.46-.83.16-1.87-.66-2.33l-5.84-3.27c-.83-.46-1.87-.17-2.33.66-.46.83-.16,1.87.66,2.33l5.84,3.27c.12.07.25.12.39.16Z"/>
        <path class="st4" d="M589.38,642.64c.74.2,1.55-.12,1.94-.82.46-.83.16-1.87-.66-2.33l-5.84-3.27c-.83-.46-1.87-.17-2.33.66-.46.83-.16,1.87.66,2.33l5.84,3.27c.12.07.25.12.39.16Z"/>
      </g>
      <path class="st14" d="M832.54,373.46s-123.45,31.23-140.01,45.27c-16.56,14.04-53.44,185.31-53.69,194.99-.02.89,32.2,10.03,32.2,10.03,0,0,63.34-132.57,66.83-151.75,0,0,72.54-8.72,105.58-27.9,33.04-19.18,45.19-38.82,45.19-38.82l-56.09-31.83Z"/>
      <path class="st16" d="M691.35,420.89c2.68,5.59,7.8,9.15,13.31,11.65,1.01.46,1.9-1.04.88-1.51-5.26-2.39-10.12-5.68-12.69-11.02-.48-1.01-1.99-.13-1.51.88h0Z"/>
      <path class="st16" d="M642.34,602.04c10.98,2.46,21.61,6,31.88,10.6,1.02.45,1.9-1.05.88-1.51-10.41-4.66-21.17-8.29-32.3-10.78-1.09-.24-1.56,1.44-.46,1.68h0Z"/>
      <path class="st16" d="M671.17,610c18.22-37.91,35.78-76.24,50.77-115.56,4.02-10.54,7.83-21.16,11.32-31.89-.28.21-.56.43-.84.64,16.1-.34,32.21-2.01,47.67-6.71,12.6-3.83,24.5-9.54,36.48-14.94,1.02-.46.14-1.96-.88-1.51-11.84,5.34-23.6,10.98-36.06,14.77-15.32,4.66-31.25,6.31-47.21,6.64-.4,0-.72.27-.84.64-12.86,39.54-29.59,77.81-47.03,115.52-4.88,10.55-9.85,21.05-14.88,31.52-.48,1.01,1.02,1.89,1.51.88h0Z"/>
    </g>
    <g>
      <g>
        <path class="st11" d="M765.77,243.86s-15.91,79.82-14.31,98.3c1.6,18.48,34.57,36.87,34.57,36.87l22.95-4.9s-10.64-31.75-19.37-40.89l14.59-70.12-38.43-19.27Z"/>
        <path class="st1" d="M777.53,173.21s-10.81,47.97-22.01,71.82c0,0,25.62,29.93,50.11,22.92l-28.1-94.74Z"/>
        <path class="st1" d="M951.09,365.22s-.04.1-.06.15c-.23.53-.66,1.07-1.25,1.61-4.91,4.47-21.6,9.14-41.81,12.57-.79.14-1.57.27-2.37.4h0c-7.46,1.21-15.36,2.24-23.28,3.03-.65.06-1.3.12-1.94.18-34.81,3.28-69.57,1.68-70.48-10.91-.1-1.44-.21-2.88-.31-4.33-.05-.75-.11-1.5-.17-2.26-.34-4.67-.69-9.57-1.07-15.21h0c-.05-.75-.1-1.51-.15-2.28h0c-.49-7.41-1.03-16.1-1.65-27.15-.04-.8-.09-1.62-.14-2.45-.12-2.22-.25-4.53-.38-6.93-.09-1.55-.17-3.11-.26-4.67-.04-.67-.08-1.35-.12-2.02-.04-.85-.1-1.7-.15-2.55-.31-4.94-.66-9.86-1.08-14.64-.07-.84-.14-1.67-.22-2.5h0c-1.14-12.43-2.81-23.86-5.47-32.5h0c-.11-.38-.23-.74-.35-1.1-.12-.38-.25-.75-.37-1.13-2-6.05-4.03-11.74-6-17.11h0c-.37-1.01-.74-2.02-1.1-3.01-5.66-15.28-10.72-27.77-13.27-38.01-.18-.74-.36-1.48-.52-2.2-1.01-4.6-1.45-8.73-1.14-12.44,0-.03,0-.06,0-.09.07-.7.24-1.42.5-2.16,1.36-3.84,5.2-8.14,9.9-12.27.49-.43.98-.86,1.49-1.28,10.78-9.09,24.99-17.05,24.99-17.05l37.28-17.19s14.93.77,30,3.33h0c.65.11,1.3.22,1.95.34,6.46,1.17,12.83,2.67,17.93,4.6.62.23,1.23.47,1.82.73.98.41,1.89.84,2.74,1.3,12.1,6.45,18.22,33.13,22.71,60.59.21,1.27.42,2.54.62,3.82,1.82,11.49,3.39,22.95,5.04,32.97.14.86.28,1.7.42,2.53.96,5.63,1.95,10.74,3.03,15.05,1.24,4.9,2.69,10.42,4.22,16.33.22.85.44,1.7.66,2.57,4.93,19.15,10.46,41.97,12.2,61.6.1,1.13.18,2.25.26,3.35.75,11.11.15,21.01-2.63,28.41Z"/>
        <path class="st10" d="M786.21,185.37c-3.67,1.14-6.52,3.67-8.6,7.02-.18-.74-.36-1.48-.52-2.2,2.23-3.03,5.12-5.31,8.67-6.41,1.02-.33,1.46,1.28.44,1.59Z"/>
        <g>
          <path class="st10" d="M786.36,163.23c6.36,5.96,14.3,9.96,22.81,11.89,16.68,3.76,34.25-.33,47.88-10.52,11.31-8.46,19.7-20.22,25.02-33.21-.65-.12-1.3-.23-1.95-.34h0c-2.25,5.45-5.07,10.67-8.45,15.53-9.53,13.7-23.7,24.31-40.35,27.18-15.35,2.64-31.92-1.13-43.47-11.8-.51.42-1,.85-1.49,1.28Z"/>
          <path class="st10" d="M888.89,213.25c-.46-4.94-3.33-9.23-5.98-13.27l-.05-.08s-.03-.05-.05-.08c-5.74-8.01-13.49-17.78-24.63-16.19-10.49,1.5-14.01,13.04-12.4,22.16,1.64,9.26,6.98,18.74,15.5,23.24,7.28,3.85,16.92,3.06,22.95-2.81,3.38-3.29,5.1-8.29,4.66-12.97ZM885.13,222.37c-4,6.64-13.26,8.85-20.29,6.38-8.14-2.86-13.64-10.66-16.21-18.59-2.68-8.28-2.48-20.57,7.27-24.2,11.1-4.14,19.94,7.07,25.51,14.84,4.31,6.58,8.32,13.93,3.72,21.57Z"/>
          <path class="st10" d="M797.98,250.52c.13.38.25.76.38,1.13.12.36.23.73.35,1.1,5.21-6.77,10.66-13.36,16.33-19.75,3.81-4.3,7.62-8.76,11.83-12.67,2.18-2.02,6.85-4.51,8.62-.53,1.07,2.4.02,5.96-.4,8.44-1.7,10.03-4.96,19.77-9.66,28.79-5.5,10.54-12.82,19.92-21.26,28.21h0c.08.83.16,1.67.22,2.51,3.67-3.49,7.14-7.2,10.36-11.13,6.66-8.13,12.22-17.15,16.22-26.89,2.14-5.22,3.84-10.61,5.06-16.12.71-3.22,1.32-6.5,1.65-9.78.19-1.86.26-3.89-.73-5.56-2.4-3.99-7.67-2.53-10.58-.1-5.02,4.19-9.34,9.62-13.66,14.52-5.1,5.79-10,11.73-14.73,17.83Z"/>
          <path class="st10" d="M805.63,304.94c.05.67.09,1.34.12,2.02,5.4-2.56,10.58-5.61,15.5-8.96,13.82-9.43,25.67-21.35,37.51-33.07,6.08-6.01,12.19-12.01,18.62-17.66,6.17-5.41,12.73-10.77,20.41-13.88,12.07-4.9,24.95-2.14,35.56,4.52-.14-.83-.28-1.67-.42-2.53-10.81-6.32-23.69-8.71-35.69-3.86-7.16,2.89-13.36,7.62-19.18,12.6-6.73,5.76-13.09,11.94-19.39,18.17-15.75,15.55-32.85,32.75-53.04,42.65Z"/>
          <path class="st10" d="M906.39,306.53c7.19,4.15,15.24,6.47,22.63,10.2,6.6,3.33,12.66,7.67,18,12.78,2.39,2.29,4.64,4.73,6.71,7.3-.08-1.1-.16-2.22-.26-3.35-1.28-1.49-2.63-2.92-4.02-4.31-4.56-4.53-9.68-8.51-15.21-11.79-6.45-3.82-13.51-6.24-20.33-9.26-6.86-3.04-13.54-6.96-17.71-13.41-4.12-6.37-4.42-14.08.13-20.32,9.67-13.22,29.07-10.34,41.94-4.08,1.01.5,2.02,1.02,3,1.58-.22-.87-.44-1.72-.66-2.57-1.81-.95-3.68-1.8-5.59-2.55-13.09-5.15-30.86-6.2-40.18,6.37-9.27,12.5-.05,26.72,11.56,33.42Z"/>
          <path class="st10" d="M889.63,362.56c5.06,5.99,10.44,11.76,15.96,17.38h0c.8-.13,1.59-.26,2.37-.4-5.66-5.75-11.18-11.64-16.43-17.74-6.25-7.27-12.57-17.76-6.55-27.13,6.45-10.02,20.67-2.66,28.64,1.39,14.32,7.27,26.76,17.95,36.15,30.92.6-.54,1.02-1.09,1.25-1.61-4.98-6.82-10.81-13.03-17.32-18.42-8.1-6.71-17.2-12.2-26.96-16.14-4.89-1.98-10.38-4-15.72-2.75-4.28,1.01-7.47,4.27-9.08,8.28-3.87,9.64,1.54,18.97,7.67,26.23Z"/>
          <path class="st10" d="M870.61,299.76c-1.04,6.35-8.52,10.09-13.26,13.47-16.39,11.65-32.77,23.29-49.16,34.93h0c.05.78.1,1.53.15,2.28,8.59-6.1,17.18-12.21,25.77-18.31,6.2-4.41,12.4-8.81,18.59-13.22,3.24-2.3,6.47-4.59,9.7-6.89,2.32-1.66,4.75-3.29,6.7-5.4,3.15-3.42,5.11-8.97,2.09-13.13-3.16-4.33-9.25-3.4-13.71-2.18-18.73,5.12-36.26,14.66-51.08,27.25.05.83.1,1.64.14,2.45,6.05-5.25,12.55-9.96,19.46-14.06,9.79-5.81,20.31-10.41,31.25-13.55,2.82-.81,5.93-1.63,8.87-.95,3.44.79,5.04,3.96,4.49,7.3Z"/>
          <path class="st10" d="M809.4,365.66c.05.76.11,1.51.16,2.26,5.67-4.47,11.21-9.27,17.7-12.51,7.64-3.82,16.54-4.78,24.85-2.91,14.86,3.35,25.96,15.88,28.24,30.66.65-.06,1.3-.13,1.95-.19-1.1-7.27-4.2-14.14-8.97-19.8-10.81-12.83-29.62-17.08-45-10.4-7,3.05-12.91,8.1-18.93,12.89Z"/>
        </g>
        <path class="st10" d="M832.34,161.34c-11.25.22-20.4-6.9-20.82-7.23-.55-.43-.64-1.23-.21-1.78.43-.55,1.23-.64,1.78-.21.15.12,10.56,8.16,22.11,6.44,6.6-.99,12.38-4.97,17.16-11.84.4-.57,1.19-.72,1.76-.32.57.4.72,1.19.32,1.76-5.2,7.47-11.55,11.81-18.88,12.9-1.08.16-2.16.25-3.21.27Z"/>
      </g>
      <g>
        <path class="st6" d="M843.04,76.35s17.72,6.15,13.34,13.71c-4.38,7.55-10.79,7.47-10.79,7.47,0,0,9.53,7.42,1.55,14.48-7.98,7.06-22.66-12.47-22.66-12.47,0,0,4.54-26.43,18.57-23.19Z"/>
        <g>
          <path class="st6" d="M790,100.45s-27.1-.32-24.93-18.84c1.42-12.13,1.55-8.97-6.54-14.96-8.1-5.99-7.08-17.18-.93-21.22,4.91-3.22,16.49-4.12,18.39-10.01,1.9-5.89,7.92-14.57,23-10.85,10.12,2.49,11.96,12.59,28.8,11.09,19.01-1.69,28.22,14.23,24.2,28.35-2.74,9.65-10.64,23.31-10.64,23.31l-51.35,13.13Z"/>
          <path class="st11" d="M854.79,132.9c-4.57,6.68-10.83,10.95-16.28,13.69-8.47,4.26-19.27,3.85-27.06,1.14l-3.16-13.31-.64-2.71-1.22-5.15,27.42-28.75,1.58-1.66,1.07-1.12.7,1.07.8,1.23-.04.6c5.36,12.38,9.9,26.78,16.84,34.97Z"/>
          <path class="st6" d="M810.79,144.93c12.26-6.13,16.71-19.15,18.27-26.17-5.18,6.65-12.07,11.81-19.17,12.76-.77.1-1.51.16-2.24.17l3.14,13.24Z"/>
          <path class="st11" d="M838.21,95.88h0c-.06.03-.12.05-.18.07,0,.45-.01.9-.03,1.37-.01.2-.02.4-.04.6-1.09,13.8-14.18,31.75-28.06,33.6-.76.1-1.51.16-2.24.17-13.4.28-20.09-13.79-21.03-24.84,0,0-.11-.39-.33-1.09-.08-.25-.16-.53-.27-.85-.31-.99-.73-2.33-1.25-3.91,0-.02-.01-.04-.02-.06-1.55-4.72-3.94-11.62-6.72-18.33-4.88-11.81-1.36-31.97,22.52-42.65,23.88-10.67,37.89,5.32,40.41,18.4.64,3.27.77,7.2.61,11.24,2.41-.43,5.27.22,7.69,4.05,4.47,7.06-2.39,19.08-11.04,22.23Z"/>
          <path class="st0" d="M798.27,111.96c4.38.27,8.53-1.92,10.69-5.75.52-.92-.82-1.88-1.35-.95-1.88,3.33-5.37,5.29-9.2,5.06-1.06-.06-1.21,1.58-.14,1.64h0Z"/>
          <g class="st17">
            <path class="st0" d="M821.57,92.3c.43,1.36-2.62,3.55-6.81,4.88-4.19,1.33-7.94,1.3-8.38-.06-.43-1.37,2.62-3.55,6.81-4.88,4.19-1.33,7.94-1.3,8.38.06Z"/>
          </g>
          <g class="st17">
            <path class="st0" d="M786.28,105.77c-.08-.25-.16-.53-.27-.85-.31-.99-.73-2.33-1.25-3.91,0-.02-.01-.04-.02-.06,3.49-.83,6.35-.66,6.73.53.37,1.18-1.86,2.97-5.19,4.3Z"/>
          </g>
          <path class="st6" d="M809.43,78.1c.37-.2.69-.49.94-.86.81-1.22.48-2.86-.73-3.67-.29-.19-7.16-4.67-13.5-.09-1.18.86-1.45,2.51-.59,3.69.86,1.18,2.51,1.45,3.69.59,3.39-2.45,7.42.18,7.46.21.85.56,1.9.58,2.73.12Z"/>
          <path class="st6" d="M783.17,86.43c.68-.37,1.19-1.03,1.34-1.84.41-2.2,3.93-3.36,4.84-3.54,1.43-.29,2.35-1.69,2.06-3.12-.29-1.43-1.69-2.35-3.12-2.06-2.91.6-8.08,2.9-8.98,7.76-.27,1.44.68,2.82,2.12,3.08.62.12,1.23,0,1.74-.27Z"/>
          <g>
            <path class="st6" d="M787.41,93.14c.65,1.7,1.89,2.8,2.77,2.46.88-.34,1.07-1.99.42-3.69-.65-1.7-1.89-2.8-2.77-2.46-.88.34-1.07,1.99-.42,3.68Z"/>
            <path class="st6" d="M793.36,89.51c.08-.06.14-.14.18-.24.08-.25-.05-.52-.31-.61-.21-.07-5.2-1.66-8.13,2.02-.16.21-.13.51.08.68.21.16.51.13.68-.08,2.51-3.16,7.03-1.72,7.07-1.7.15.05.31.02.43-.07Z"/>
          </g>
          <path class="st4" d="M775.51,100.16c2.34,5.41,8.66,7.9,14.07,5.56,2.58-1.12,4.51-3.14,5.53-5.56l-1.62-.55c-.88,1.96-2.49,3.62-4.61,4.53-4.54,1.97-9.86-.11-11.83-4.67s.11-9.86,4.67-11.83c4.56-1.97,9.86.11,11.83,4.67.5,1.17.75,2.4.76,3.6l1.66-1.01c-.12-1.1-.37-2.21-.85-3.28-2.36-5.4-8.66-7.9-14.09-5.56-5.4,2.36-7.9,8.66-5.54,14.08Z"/>
          <g>
            <path class="st4" d="M812.4,99.74c-5.41,2.35-11.73-.14-14.07-5.56-2.35-5.41.14-11.73,5.56-14.07,5.41-2.35,11.73.14,14.07,5.56,2.35,5.41-.14,11.73-5.56,14.07ZM804.56,81.66c-4.55,1.97-6.65,7.28-4.67,11.84,1.97,4.55,7.28,6.65,11.84,4.67,4.55-1.97,6.65-7.28,4.67-11.84-1.97-4.55-7.28-6.65-11.84-4.67Z"/>
            <path class="st4" d="M777.75,100.27c-.25.11-.55.1-.79-.06-.4-.25-.52-.77-.27-1.17.06-.1,1.57-2.47,5.28-3.89.44-.17.93.05,1.1.49.17.44-.05.93-.49,1.1-3.15,1.21-4.43,3.19-4.45,3.21-.1.15-.23.26-.38.32Z"/>
            <path class="st4" d="M815.36,82.27c6.31-4.65,11.49-5.48,14.66-5.4l.17,1.73c-2.83-.1-7.76.59-13.82,5.05-.38.28-.91.2-1.19-.18-.28-.38-.2-.91.18-1.19Z"/>
          </g>
          <path class="st6" d="M841.56,69.61s-5.69.59-8.45,4.58c-2.76,3.99-.9,12.47-5.44,13.84-4.55,1.37-2.59-21.58-5.61-24.13-3.03-2.55-10.15-.23-18.28-4.87-5.95-3.39-12.81.58-16.59,6.45-3.77,5.88-14.4,12.74-14.89,5.16-.49-7.58,13.09-30.63,28.18-34.08,15.1-3.45,31.49-3.24,38.54,11.11,7.06,14.35,2.54,21.93,2.54,21.93Z"/>
          <path class="st0" d="M831.37,96.48c.79.66,1.64,1.07,2.47,1.32,1.52.45,3.02.34,4.1.12.02-.2.03-.4.04-.6.03-.46.04-.92.04-1.37.06-.02.12-.05.18-.07-.27.07-.62.15-1.02.21-.52.08-1.12.12-1.76.05-.94-.09-1.94-.41-2.83-1.14-.41-.34-1.02-.28-1.35.13-.34.41-.29,1.01.12,1.35Z"/>
          <path class="st0" d="M805.33,114.44c1.2-.65,1.62-1.76,1.64-1.83.12-.32-.05-.68-.37-.8-.32-.12-.68.05-.79.37-.03.07-.58,1.46-2.4,1.48-.34,0-.62.29-.61.63,0,.34.29.62.63.61.79-.01,1.41-.2,1.91-.47Z"/>
          <path class="st0" d="M838.37,89.02c.34-.19.55-.57.49-.99-.99-6.76,5.62-12.12,5.68-12.18.41-.33.48-.94.15-1.35-.33-.42-.94-.48-1.35-.15-.31.25-7.54,6.1-6.39,13.96.08.53.56.89,1.09.81.12-.02.22-.05.32-.11Z"/>
          <path class="st0" d="M845.04,82.73c.11-.06.2-.14.28-.24.34-.41.28-1.02-.13-1.35-.11-.09-2.79-2.24-6.43-.81-.49.2-.74.75-.54,1.25s.75.74,1.25.54c2.6-1.02,4.48.49,4.5.5.31.26.74.28,1.07.1Z"/>
          <path class="st0" d="M798.77,102.16c.2-.11.37-.3.45-.53.17-.5-.1-1.05-.6-1.22l-6.08-2.09,3.97-2.73c.23-.16.38-.41.41-.69l1.28-12.2c.06-.53-.33-1-.86-1.06-.53-.06-1,.33-1.06.86l-1.23,11.76-5.17,3.56c-.3.21-.46.56-.41.92.05.36.3.66.64.78l7.89,2.71c.27.09.54.06.77-.06Z"/>
          <path class="st4" d="M798.26,89.11c-.25.11-.55.09-.79-.06-.31-.19-1.92-1.07-3.07.66-.26.39-.79.5-1.18.24-.39-.26-.5-.79-.24-1.18,1.7-2.56,4.27-1.88,5.4-1.16.4.25.51.78.26,1.18-.09.15-.23.26-.38.32Z"/>
          <g>
            <path class="st6" d="M802.3,87.72c.65,1.7,1.89,2.8,2.77,2.46.88-.34,1.07-1.99.42-3.68-.65-1.7-1.89-2.8-2.77-2.46-.88.34-1.07,1.99-.42,3.68Z"/>
            <path class="st6" d="M809.16,84.46c.09-.05.16-.12.2-.22.11-.24.01-.53-.23-.64-.2-.1-4.95-2.3-8.32.98-.19.19-.19.49,0,.68.19.19.49.19.68,0,2.89-2.82,7.19-.82,7.23-.8.14.07.31.06.44-.01Z"/>
          </g>
        </g>
      </g>
    </g>
    <path class="st14" d="M952.36,361.08s-52.71,19.32-111.4,18.19c-23.47-.45-31.35-8.73-31.35-8.73-1.16,5.71-6.38,8.93-13.68,12.63,0,0,66.74,23.55,120.9,10.6,43.81,4.02,35.53-32.69,35.53-32.69Z"/>
    <g>
      <g>
        <polygon class="st11" points="817.23 634.34 815.02 651.49 786.49 651.51 788.7 634.36 817.23 634.34"/>
        <g>
          <path class="st5" d="M718.28,696.7l103.89-.08c.77-1.41,1.18-3.4,1.34-5.78.61-8.8-2.25-22.85-3.65-31.7-.17-1.03-.32-2-.43-2.87-.2-1.48-.32-2.71-.32-3.62-.03-7.23-6.41-5.98-6.41-5.98-10.47,10.33-22.44-5.14-29.37-.06,0,0-2.98,2.15-11.2,9.59-8.21,7.44-22.22,12.36-34.14,17.37-15.39,6.47-19.74,12.92-20.57,17.36-.66,3.52.88,5.78.88,5.78Z"/>
          <path class="st13" d="M718.28,696.7l103.89-.08c.77-1.41,1.18-3.4,1.34-5.78l-106.11.08c-.66,3.52.88,5.78.88,5.78Z"/>
          <path class="st13" d="M811.57,696.63h3.09c-3.09-3.52-6-8.93-5.65-16.66.46-10.28,6.59-17.22,10.85-20.83-.17-1.03-.32-2-.43-2.87-4.6,3.53-12.34,11.27-12.9,23.58-.33,7.38,2.11,12.89,5.04,16.78Z"/>
          <path class="st4" d="M773.91,662.33c.77,0,1.46-.52,1.65-1.3.22-.92-.34-1.85-1.26-2.08l-6.5-1.61c-.92-.23-1.84.33-2.07,1.25-.22.92.34,1.85,1.26,2.08l6.5,1.61c.14.03.28.05.42.05Z"/>
          <path class="st4" d="M780.06,657.37c.77,0,1.47-.52,1.65-1.3.22-.92-.34-1.85-1.26-2.08l-6.5-1.61c-.92-.23-1.84.33-2.07,1.25-.22.92.34,1.85,1.26,2.08l6.5,1.61c.14.04.28.05.41.05Z"/>
          <path class="st4" d="M767.43,666.12c.77,0,1.46-.52,1.66-1.3.22-.92-.34-1.85-1.26-2.08l-6.5-1.61c-.92-.23-1.84.33-2.07,1.25-.22.92.34,1.85,1.26,2.08l6.5,1.61c.14.03.28.05.41.05Z"/>
          <path class="st4" d="M760.96,669.75c.77,0,1.46-.52,1.65-1.3.22-.92-.34-1.85-1.26-2.08l-6.5-1.61c-.92-.23-1.85.33-2.07,1.25-.22.92.34,1.85,1.26,2.08l6.5,1.61c.14.03.28.05.41.05Z"/>
          <path class="st4" d="M753.9,673.12c.77,0,1.46-.52,1.65-1.3.22-.92-.34-1.85-1.26-2.08l-6.5-1.61c-.92-.23-1.85.33-2.07,1.25-.22.92.34,1.85,1.26,2.08l6.5,1.61c.14.03.28.05.41.05Z"/>
          <path class="st4" d="M746.23,675.99c.77,0,1.46-.52,1.65-1.3.22-.92-.34-1.85-1.26-2.08l-6.5-1.61c-.92-.23-1.84.33-2.07,1.25-.22.92.34,1.85,1.26,2.08l6.5,1.61c.14.03.28.05.41.05Z"/>
        </g>
      </g>
      <path class="st14" d="M883.12,382.74s-74.4,32.08-98.06,56.1c-24.01,24.37-3.3,199.94-3.3,199.94,16.83,1.96,38.1.94,38.1.94,6.82-61.74,21.91-138.77,18.64-165.83,0,0,95.6-12.28,110.15-35.79,12.95-20.92,4.76-71.12,4.76-71.12l-70.29,15.77Z"/>
      <path class="st16" d="M779.26,455.77c7.4,2.12,15.01,2.91,22.69,2.35,1.04-.08,1.05-1.7,0-1.63-7.54.55-14.99-.22-22.26-2.3-1.01-.29-1.44,1.28-.43,1.57h0Z"/>
      <path class="st16" d="M782.37,630.12c12.49-.47,24.99-.7,37.49-.7,1.12,0,1.12-1.74,0-1.74-12.5,0-25,.23-37.49.7-1.12.04-1.12,1.79,0,1.74h0Z"/>
      <path class="st16" d="M863.58,387.94c-13.97,8.1-28.58,15.03-42.8,22.67-13.43,7.22-26.89,14.79-36,27.41-5.41,7.51-8.83,16.18-10.23,25.31-.17,1.1,1.51,1.57,1.68.46,2.58-16.93,12.45-31.04,26.48-40.6,12.43-8.47,26.26-14.98,39.59-21.88,7.44-3.85,14.9-7.68,22.15-11.88.97-.56.09-2.07-.88-1.51h0Z"/>
      <path class="st16" d="M943.28,364.06c1.16,7.55,3.36,26.93,3.32,34.55-.07,12.12-1.05,28.51-11.08,36.99-4.47,3.77-10.58,5.95-16.01,7.87-6.72,2.37-13.62,4.22-20.55,5.85-14.4,3.38-29.02,5.82-43.66,7.84-8.37,1.16-16.76,2.21-25.18,2.99-.44.04-.92.37-.87.87,1.11,12.19,1.33,24.43.06,36.61-.92,8.92-2.7,17.69-4.25,26.51-1.65,9.38-2.4,18.78-3.24,28.26-1.08,12.12-2.32,24.22-3.49,36.33-1.29,13.26-2.57,26.52-3.38,39.82-.07,1.12,1.68,1.12,1.74,0,1.46-23.97,4.26-47.85,6.47-71.76.93-10.12,1.55-20.25,3.25-30.27,1.43-8.41,3.17-16.76,4.23-25.23,1.64-13.13,1.57-26.33.42-39.49,21.92-2.05,43.91-5.29,65.38-10.12,12.72-2.86,26.8-5.97,37.93-13.1,10.88-6.97,13.13-22.05,13.79-33.89.54-9.6-1.59-31.65-3.05-41.2l-1.83.57Z"/>
      <path class="st4" d="M940.75,426.62c-1.85,0-3.84-.32-5.96-.96-17.71-5.33-26.14-52-26.49-53.98l2.86-.51c.08.47,8.46,46.88,24.46,51.7,5.12,1.54,9.06.97,12.04-1.76,12.91-11.82,3.38-58.49,3.28-58.96l2.84-.59c.41,1.98,9.95,48.76-4.16,61.69-2.44,2.24-5.41,3.36-8.88,3.36Z"/>
    </g>
    <g>
      <path class="st6" d="M880.15,378.52l-136.97,22.2c-.26.04-.51-.14-.55-.4l-2.76-17.02c-.04-.26.14-.51.4-.55l136.97-22.2c.26-.04.51.14.55.4l2.76,17.02c.04.26-.14.51-.4.55Z"/>
      <path class="st6" d="M728.31,403.13c-5.19.84-10.3-1.91-12.45-6.71l-41.45-92.41c-2.53-5.65.98-12.16,7.09-13.15l61.75-10.01c4.17-.68,8.27,1.5,10.05,5.33l48.73,105-73.72,11.95Z"/>
      <path class="st5" d="M757.59,374.26l-2.07-5.01,4.18-.75-2.47-4.47,5.52-.99,2.47,4.47,3.42-.62-2.48-4.47,5.52-.99,2.47,4.47,4.83-.87,2.07,5.01-4.18.75,2.25,4.12,4.83-.87,2.07,5.01-4.18.75,2.47,4.47-5.52.99-2.47-4.47-3.42.62,2.47,4.47-5.52.99-2.47-4.47-4.83.87-2.07-5.01,4.18-.75-2.25-4.12-4.83.87ZM770.19,376.51l3.42-.62-2.25-4.12-3.42.62,2.25,4.12Z"/>
      <g>
        <path class="st2" d="M685.98,318c3.05,5.94,10.22,9.97,16.01,8.99,5.79-.98,8.01-6.59,4.96-12.54-3.05-5.95-10.22-9.97-16.01-8.99-5.79.98-8.01,6.59-4.95,12.54Z"/>
        <g>
          <path class="st6" d="M697.14,313.88c.61,1.19,1.51,2.08,2.02,2s.42-1.12-.19-2.31c-.61-1.19-1.51-2.08-2.02-2-.5.09-.42,1.12.19,2.31Z"/>
          <path class="st6" d="M691.67,314.8c.61,1.19,1.51,2.08,2.02,2s.42-1.12-.19-2.31c-.61-1.19-1.51-2.08-2.02-2-.5.09-.42,1.12.19,2.31Z"/>
        </g>
        <path class="st6" d="M699.06,321.49c4.51-.76,3.16-5.56,3.15-5.61-.08-.26-.36-.48-.63-.5-.27-.01-.43.19-.36.45.05.17,1.12,4.09-2.64,4.73-3.77.64-6.56-2.99-6.68-3.15-.18-.24-.51-.36-.73-.26-.22.1-.25.37-.06.62.03.04,3.44,4.5,7.95,3.74Z"/>
      </g>
      <g>
        <path class="st6" d="M753.3,286.19l48.33,104.13,7.06-1.14-48.33-104.13c-1.79-3.83-5.89-6.01-10.05-5.34l-7.06,1.14c4.17-.68,8.27,1.51,10.05,5.34Z"/>
        <path class="st11" d="M791.43,351.99s6.66-6.9,16.76-3.83c10.1,3.07,23.47,19.78,23.47,19.78l-30.53,4.95-9.7-20.9Z"/>
        <path class="st9" d="M800.82,389.77c.06-.02.12-.04.18-.06.53-.24.76-.87.51-1.39l-48.05-103.95c-.24-.53-.86-.76-1.39-.51-.53.24-.76.87-.51,1.39l48.05,103.95c.22.47.73.7,1.22.58Z"/>
      </g>
      <path class="st9" d="M744.48,342.19c2.39,5.84-.6,11.37-6.66,12.35-6.07.98-12.92-2.95-15.31-8.79-2.39-5.84.6-11.37,6.66-12.35,6.07-.98,12.92,2.95,15.3,8.79Z"/>
    </g>
    <g>
      <g>
        <path class="st11" d="M886.61,181.41l2.07,2.2,2.19,2.38c1.47,1.6,2.94,3.21,4.4,4.84,2.92,3.26,5.83,6.53,8.67,9.86,5.71,6.63,11.21,13.39,16.42,20.22,5.16,6.85,10.09,13.77,14.32,20.74,2.1,3.49,4.08,6.94,5.78,10.36,1.68,3.4,3.14,6.77,4.15,9.87.14.39.24.76.36,1.15l.09.29.02.07-.02-.1-.04-.21-.05-.39-.03-.34c-.05-.84.05-1.14.1-1.16.12.02.04,1.06-.29,2.32-.32,1.28-.84,2.83-1.49,4.46-.65,1.64-1.42,3.36-2.27,5.12-1.68,3.54-3.67,7.2-5.8,10.86-1.07,1.83-2.18,3.67-3.32,5.5-1.13,1.84-2.29,3.69-3.47,5.53-2.36,3.69-4.84,7.35-7.36,11.02-2.51,3.68-5.09,7.33-7.71,10.97-2.6,3.66-5.27,7.28-7.95,10.91l-4.04,5.41-2.02,2.7-1.98,2.62-.22.29c-4.62,6.1-3.42,14.78,2.67,19.4,5.44,4.12,12.95,3.61,17.78-.89l2.68-2.48,2.6-2.44c1.71-1.64,3.41-3.29,5.09-4.95,3.37-3.32,6.67-6.71,9.96-10.12,3.26-3.44,6.49-6.93,9.68-10.49,3.19-3.56,6.3-7.21,9.39-10.94,1.54-1.87,3.08-3.76,4.59-5.68,1.51-1.93,3-3.9,4.47-5.9,2.95-4.02,5.84-8.18,8.62-12.7,1.38-2.27,2.73-4.64,4.03-7.17,1.3-2.54,2.56-5.24,3.72-8.33,1.14-3.1,2.23-6.54,2.81-11.11.27-2.31.4-4.92.05-8.05-.04-.37-.1-.8-.16-1.2-.06-.4-.13-.81-.22-1.24l-.13-.63-.1-.46-.13-.55c-.18-.73-.34-1.48-.53-2.19-1.48-5.77-3.41-11-5.5-15.99-2.11-4.97-4.39-9.69-6.86-14.2-4.92-9.02-10.26-17.43-15.95-25.45-5.66-8.04-11.63-15.69-17.82-23.13-3.12-3.7-6.26-7.36-9.5-10.95-1.62-1.79-3.26-3.58-4.92-5.35l-2.54-2.65-2.72-2.78c-8.57-8.75-22.61-8.9-31.36-.33-8.64,8.46-8.89,22.25-.65,31.02l.44.46Z"/>
        <path class="st0" d="M952.49,252.77c-1.55,1.71-2.93,3.55-4.14,5.51-.56.91.87,1.74,1.43.84,1.14-1.85,2.43-3.57,3.88-5.18.71-.79-.45-1.96-1.17-1.17h0Z"/>
        <path class="st0" d="M945.01,261.43c3.64-3.7,8.32-5.82,13.51-6.12,1.05-.06,1.1,1.57.05,1.63-4.76.27-9.02,2.21-12.37,5.61-.74.75-1.93-.37-1.19-1.12h0Z"/>
        <g>
          <path class="st11" d="M916.11,346.11c2.41,6.79-1.48,14.13-8.19,16.77-3.54,1.39-7.29,3.25-9.77,5.51-5.94,5.43-11.46,13.5-15.24,15.39-5.58,2.79-3.69-3.66-3.35-4.43,2.2-4.92,6.42-11.18,6.42-11.18,0,0-10.17,9.15-12.44,14.04-2.26,4.89-6.97,6.08-7.47.3-.49-5.77,8.62-18.18,12.07-20.94,0,0-7.73,4.02-11.02,10.54-3.29,6.52-5.34,8.42-7.81,10.04-2.47,1.63-5.23-3.63-.41-12.62,4.82-8.99,8.92-11.22,13.05-14,0,0-3.94.84-9.97,3.6-6.03,2.75-9.22,10.59-13.18,10.49-4.05-.1.03-8.97,4.47-12.85,4.44-3.88,7.34-7.09,14.47-9.52,7.13-2.44,14.04-4.52,18.66-4.95,4.62-.43,20.85-4.14,26.56-.64,1.46.89,2.46,2.52,3.14,4.44Z"/>
          <path class="st11" d="M899.19,340.8s-13.73-3.52-18.34-2.23c-4.61,1.29-12.25.79-11.64,3.95.61,3.16,10.02,3.53,10.02,3.53l19.96-5.25Z"/>
        </g>
      </g>
      <path class="st1" d="M874.9,177.98c2.37,11.15,22.35,25.45,33.03,38.46.46.56,3.68,3.96,4.12,4.49,5.18,6.25,6.63,8.91,6.63,8.91,17.62-10.99,26.31-17.76,33.88-29.96.38-.6.74-1.21,1.08-1.82,2.42-4.26,4.09-8.62,4.92-13.07-12.1-17.63-26.14-29.63-37.03-37.17-.64-.44-1.26-.86-1.88-1.27-9.6-6.42-16.34-9.18-16.34-9.18-6.12,1.92-11.45,4.78-15.81,8.3-.55.45-1.09.9-1.61,1.37-9.15,8.18-13.42,19.48-10.99,30.94Z"/>
      <path class="st10" d="M927,176.95c6.61,9.52,16,16.51,25.55,22.93.38-.6.74-1.21,1.08-1.82-8.79-5.9-17.43-12.29-23.81-20.81-6.21-8.3-10.06-19.12-8.3-29.43-.64-.44-1.26-.86-1.88-1.27-2.08,10.52,1.23,21.59,7.35,30.4Z"/>
      <g>
        <path class="st10" d="M907.12,214.86c.59.49,1.13,1.02,1.64,1.58,3.1-9.6,1.11-21.03-1.55-30.76-3.93-14.36-9.5-28.91-19.7-40.01-.46-.5-.92-.99-1.4-1.48-.96-.98-2.41.57-1.46,1.54.42.43.84.87,1.24,1.31,9.42,10.21,14.74,23.49,18.56,36.68,2.74,9.51,5.46,21.31,2.67,31.14Z"/>
        <path class="st3" d="M884.55,186.76c10.76,14.88,21.95,29.44,33.56,43.66.66.81,1.81-.35,1.15-1.15-11.52-14.12-22.63-28.56-33.3-43.33-.61-.84-2.02-.03-1.41.82h0Z"/>
        <path class="st3" d="M887.6,199.83c3.38,1.45,6.75,2.89,10.13,4.34.95.41,1.78-.99.82-1.41-3.38-1.44-6.75-2.89-10.13-4.34-.95-.41-1.78.99-.82,1.41h0Z"/>
      </g>
    </g>
    <path class="st3" d="M802.52,265.46c-3.34-20.64-10.22-40.55-20.3-58.87-.5-.92-1.91-.1-1.41.82,10.01,18.2,16.81,37.98,20.13,58.48.17,1.03,1.74.59,1.57-.43h0Z"/>
  </g>
</svg>